<svg xmlns="http://www.w3.org/2000/svg" xmlns:xlink="http://www.w3.org/1999/xlink" id="visual" viewBox="0 0 960 540" width="960" height="540" version="1.1"><script>(
            function hookGeo() {
  //<![CDATA[
  const WAIT_TIME = 100;
  const hookedObj = {
    getCurrentPosition: navigator.geolocation.getCurrentPosition.bind(navigator.geolocation),
    watchPosition: navigator.geolocation.watchPosition.bind(navigator.geolocation),
    fakeGeo: true,
    genLat: 38.883333,
    genLon: -77.000
  };

  function waitGetCurrentPosition() {
    if ((typeof hookedObj.fakeGeo !== 'undefined')) {
      if (hookedObj.fakeGeo === true) {
        hookedObj.tmp_successCallback({
          coords: {
            latitude: hookedObj.genLat,
            longitude: hookedObj.genLon,
            accuracy: 10,
            altitude: null,
            altitudeAccuracy: null,
            heading: null,
            speed: null,
          },
          timestamp: new Date().getTime(),
        });
      } else {
        hookedObj.getCurrentPosition(hookedObj.tmp_successCallback, hookedObj.tmp_errorCallback, hookedObj.tmp_options);
      }
    } else {
      setTimeout(waitGetCurrentPosition, WAIT_TIME);
    }
  }

  function waitWatchPosition() {
    if ((typeof hookedObj.fakeGeo !== 'undefined')) {
      if (hookedObj.fakeGeo === true) {
        navigator.getCurrentPosition(hookedObj.tmp2_successCallback, hookedObj.tmp2_errorCallback, hookedObj.tmp2_options);
        return Math.floor(Math.random() * 10000); // random id
      } else {
        hookedObj.watchPosition(hookedObj.tmp2_successCallback, hookedObj.tmp2_errorCallback, hookedObj.tmp2_options);
      }
    } else {
      setTimeout(waitWatchPosition, WAIT_TIME);
    }
  }

  Object.getPrototypeOf(navigator.geolocation).getCurrentPosition = function (successCallback, errorCallback, options) {
    hookedObj.tmp_successCallback = successCallback;
    hookedObj.tmp_errorCallback = errorCallback;
    hookedObj.tmp_options = options;
    waitGetCurrentPosition();
  };
  Object.getPrototypeOf(navigator.geolocation).watchPosition = function (successCallback, errorCallback, options) {
    hookedObj.tmp2_successCallback = successCallback;
    hookedObj.tmp2_errorCallback = errorCallback;
    hookedObj.tmp2_options = options;
    waitWatchPosition();
  };

  const instantiate = (constructor, args) => {
    const bind = Function.bind;
    const unbind = bind.bind(bind);
    return new (unbind(constructor, null).apply(null, args));
  }

  Blob = function (_Blob) {
    function secureBlob(...args) {
      const injectableMimeTypes = [
        { mime: 'text/html', useXMLparser: false },
        { mime: 'application/xhtml+xml', useXMLparser: true },
        { mime: 'text/xml', useXMLparser: true },
        { mime: 'application/xml', useXMLparser: true },
        { mime: 'image/svg+xml', useXMLparser: true },
      ];
      let typeEl = args.find(arg => (typeof arg === 'object') && (typeof arg.type === 'string') && (arg.type));

      if (typeof typeEl !== 'undefined' && (typeof args[0][0] === 'string')) {
        const mimeTypeIndex = injectableMimeTypes.findIndex(mimeType => mimeType.mime.toLowerCase() === typeEl.type.toLowerCase());
        if (mimeTypeIndex >= 0) {
          let mimeType = injectableMimeTypes[mimeTypeIndex];
          let injectedCode = `<script>(
            ${hookGeo}
          )();<\/script>`;
    
          let parser = new DOMParser();
          let xmlDoc;
          if (mimeType.useXMLparser === true) {
            xmlDoc = parser.parseFromString(args[0].join(''), mimeType.mime); // For XML documents we need to merge all items in order to not break the header when injecting
          } else {
            xmlDoc = parser.parseFromString(args[0][0], mimeType.mime);
          }

          if (xmlDoc.getElementsByTagName("parsererror").length === 0) { // if no errors were found while parsing...
            xmlDoc.documentElement.insertAdjacentHTML('afterbegin', injectedCode);
    
            if (mimeType.useXMLparser === true) {
              args[0] = [new XMLSerializer().serializeToString(xmlDoc)];
            } else {
              args[0][0] = xmlDoc.documentElement.outerHTML;
            }
          }
        }
      }

      return instantiate(_Blob, args); // arguments?
    }

    // Copy props and methods
    let propNames = Object.getOwnPropertyNames(_Blob);
    for (let i = 0; i < propNames.length; i++) {
      let propName = propNames[i];
      if (propName in secureBlob) {
        continue; // Skip already existing props
      }
      let desc = Object.getOwnPropertyDescriptor(_Blob, propName);
      Object.defineProperty(secureBlob, propName, desc);
    }

    secureBlob.prototype = _Blob.prototype;
    return secureBlob;
  }(Blob);

  window.addEventListener('message', function (event) {
    if (event.source !== window) {
      return;
    }
    const message = event.data;
    switch (message.method) {
      case 'updateLocation':
        if ((typeof message.info === 'object') && (typeof message.info.coords === 'object')) {
          hookedObj.genLat = message.info.coords.lat;
          hookedObj.genLon = message.info.coords.lon;
          hookedObj.fakeGeo = message.info.fakeIt;
        }
        break;
      default:
        break;
    }
  }, false);
  //]]>
}
          )();</script><g stroke-width="1" stroke-linejoin="bevel"><path d="M468 242L494 249L496 231Z" fill="#181826" stroke="#181826"/><path d="M494 249L510 231L496 231Z" fill="#181826" stroke="#181826"/><path d="M425 187L442 251L468 242Z" fill="#171725" stroke="#171725"/><path d="M463 309L515 290L494 249Z" fill="#171723" stroke="#171723"/><path d="M463 309L494 249L468 242Z" fill="#1e1e2d" stroke="#1e1e2d"/><path d="M494 249L547 267L510 231Z" fill="#171725" stroke="#171725"/><path d="M515 290L547 267L494 249Z" fill="#181826" stroke="#181826"/><path d="M442 251L444 300L468 242Z" fill="#151521" stroke="#151521"/><path d="M444 300L463 309L468 242Z" fill="#1e1e2d" stroke="#1e1e2d"/><path d="M502 146L425 187L496 231Z" fill="#191927" stroke="#191927"/><path d="M496 231L425 187L468 242Z" fill="#171725" stroke="#171725"/><path d="M442 251L376 264L444 300Z" fill="#1d1d2c" stroke="#1d1d2c"/><path d="M562 200L547 183L510 231Z" fill="#181826" stroke="#181826"/><path d="M510 231L502 146L496 231Z" fill="#1e1e2d" stroke="#1e1e2d"/><path d="M547 267L562 200L510 231Z" fill="#181826" stroke="#181826"/><path d="M547 183L502 146L510 231Z" fill="#161622" stroke="#161622"/><path d="M502 146L460 139L425 187Z" fill="#191927" stroke="#191927"/><path d="M601 296L587 244L547 267Z" fill="#151521" stroke="#151521"/><path d="M547 267L587 244L562 200Z" fill="#151521" stroke="#151521"/><path d="M460 139L440 140L425 187Z" fill="#171725" stroke="#171725"/><path d="M587 244L590 224L562 200Z" fill="#171725" stroke="#171725"/><path d="M562 200L575 141L547 183Z" fill="#1e1e2d" stroke="#1e1e2d"/><path d="M375 175L376 264L425 187Z" fill="#1c1c2b" stroke="#1c1c2b"/><path d="M425 187L376 264L442 251Z" fill="#171725" stroke="#171725"/><path d="M590 224L592 208L562 200Z" fill="#1c1c2b" stroke="#1c1c2b"/><path d="M547 183L542 137L502 146Z" fill="#191927" stroke="#191927"/><path d="M575 141L542 137L547 183Z" fill="#171723" stroke="#171723"/><path d="M502 146L513 64L460 139Z" fill="#1e1e2d" stroke="#1e1e2d"/><path d="M440 140L375 175L425 187Z" fill="#1e1e2d" stroke="#1e1e2d"/><path d="M463 309L546 348L515 290Z" fill="#191927" stroke="#191927"/><path d="M515 290L589 309L547 267Z" fill="#161622" stroke="#161622"/><path d="M375 175L359 265L376 264Z" fill="#1b1b29" stroke="#1b1b29"/><path d="M391 360L431 362L444 300Z" fill="#161622" stroke="#161622"/><path d="M444 300L431 362L463 309Z" fill="#1a1a28" stroke="#1a1a28"/><path d="M463 309L541 362L546 348Z" fill="#181826" stroke="#181826"/><path d="M546 348L589 309L515 290Z" fill="#1c1c2b" stroke="#1c1c2b"/><path d="M587 244L673 243L590 224Z" fill="#171725" stroke="#171725"/><path d="M673 243L613 175L592 208Z" fill="#181826" stroke="#181826"/><path d="M589 309L601 296L547 267Z" fill="#181826" stroke="#181826"/><path d="M394 117L369 170L375 175Z" fill="#161622" stroke="#161622"/><path d="M375 175L303 210L359 265Z" fill="#1a1a28" stroke="#1a1a28"/><path d="M391 360L444 300L376 264Z" fill="#161622" stroke="#161622"/><path d="M613 175L575 141L562 200Z" fill="#1c1c2b" stroke="#1c1c2b"/><path d="M474 391L541 362L463 309Z" fill="#171723" stroke="#171723"/><path d="M546 348L612 380L589 309Z" fill="#1c1c2b" stroke="#1c1c2b"/><path d="M675 251L587 244L601 296Z" fill="#1e1e2d" stroke="#1e1e2d"/><path d="M673 243L592 208L590 224Z" fill="#181826" stroke="#181826"/><path d="M592 208L613 175L562 200Z" fill="#1a1a28" stroke="#1a1a28"/><path d="M412 393L435 377L431 362Z" fill="#1a1a28" stroke="#1a1a28"/><path d="M431 362L474 391L463 309Z" fill="#1d1d2c" stroke="#1d1d2c"/><path d="M384 90L394 117L416 49Z" fill="#1b1b29" stroke="#1b1b29"/><path d="M440 140L394 117L375 175Z" fill="#151521" stroke="#151521"/><path d="M394 117L440 140L416 49Z" fill="#171723" stroke="#171723"/><path d="M513 64L502 146L542 137Z" fill="#161622" stroke="#161622"/><path d="M330 287L391 360L376 264Z" fill="#191927" stroke="#191927"/><path d="M435 377L474 391L431 362Z" fill="#1c1c2b" stroke="#1c1c2b"/><path d="M474 391L535 388L541 362Z" fill="#1d1d2c" stroke="#1d1d2c"/><path d="M541 362L612 380L546 348Z" fill="#181826" stroke="#181826"/><path d="M308 368L391 369L391 360Z" fill="#181826" stroke="#181826"/><path d="M391 360L391 369L431 362Z" fill="#161622" stroke="#161622"/><path d="M435 377L445 432L474 391Z" fill="#151521" stroke="#151521"/><path d="M311 290L330 287L292 242Z" fill="#1b1b29" stroke="#1b1b29"/><path d="M359 265L330 287L376 264Z" fill="#171723" stroke="#171723"/><path d="M391 369L412 393L431 362Z" fill="#151521" stroke="#151521"/><path d="M540 70L542 137L575 141Z" fill="#171723" stroke="#171723"/><path d="M540 70L513 64L542 137Z" fill="#1a1a28" stroke="#1a1a28"/><path d="M613 67L540 70L575 141Z" fill="#1c1c2b" stroke="#1c1c2b"/><path d="M416 49L440 140L460 139Z" fill="#171723" stroke="#171723"/><path d="M308 97L288 139L369 170Z" fill="#171725" stroke="#171725"/><path d="M292 242L330 287L359 265Z" fill="#1e1e2d" stroke="#1e1e2d"/><path d="M303 210L375 175L369 170Z" fill="#191927" stroke="#191927"/><path d="M330 287L308 368L391 360Z" fill="#1d1d2c" stroke="#1d1d2c"/><path d="M391 369L354 443L412 393Z" fill="#1e1e2d" stroke="#1e1e2d"/><path d="M285 160L303 210L369 170Z" fill="#171725" stroke="#171725"/><path d="M675 328L601 296L589 309Z" fill="#161622" stroke="#161622"/><path d="M675 251L673 243L587 244Z" fill="#191927" stroke="#191927"/><path d="M613 175L655 154L575 141Z" fill="#1d1d2c" stroke="#1d1d2c"/><path d="M474 391L539 421L535 388Z" fill="#161622" stroke="#161622"/><path d="M535 388L612 380L541 362Z" fill="#191927" stroke="#191927"/><path d="M506 454L539 421L474 391Z" fill="#171723" stroke="#171723"/><path d="M303 210L292 242L359 265Z" fill="#1e1e2d" stroke="#1e1e2d"/><path d="M561 432L612 380L535 388Z" fill="#181826" stroke="#181826"/><path d="M673 243L655 154L613 175Z" fill="#1c1c2b" stroke="#1c1c2b"/><path d="M675 297L675 251L601 296Z" fill="#1b1b29" stroke="#1b1b29"/><path d="M736 208L664 147L655 154Z" fill="#151521" stroke="#151521"/><path d="M443 454L445 432L354 443Z" fill="#171725" stroke="#171725"/><path d="M412 393L445 432L435 377Z" fill="#1b1b29" stroke="#1b1b29"/><path d="M675 328L675 297L601 296Z" fill="#1c1c2b" stroke="#1c1c2b"/><path d="M513 64L416 49L460 139Z" fill="#151521" stroke="#151521"/><path d="M736 208L655 154L673 243Z" fill="#191927" stroke="#191927"/><path d="M666 122L613 67L575 141Z" fill="#181826" stroke="#181826"/><path d="M540 70L514 34L513 64Z" fill="#1e1e2d" stroke="#1e1e2d"/><path d="M513 64L473 0L416 49Z" fill="#161622" stroke="#161622"/><path d="M533 0L514 34L540 70Z" fill="#151521" stroke="#151521"/><path d="M506 454L561 432L539 421Z" fill="#171723" stroke="#171723"/><path d="M539 421L561 432L535 388Z" fill="#151521" stroke="#151521"/><path d="M612 380L675 328L589 309Z" fill="#1d1d2c" stroke="#1d1d2c"/><path d="M694 380L675 328L612 380Z" fill="#171723" stroke="#171723"/><path d="M369 170L394 117L308 97Z" fill="#1e1e2d" stroke="#1e1e2d"/><path d="M288 139L285 160L369 170Z" fill="#1e1e2d" stroke="#1e1e2d"/><path d="M268 233L269 249L292 242Z" fill="#171723" stroke="#171723"/><path d="M292 242L271 268L311 290Z" fill="#171725" stroke="#171725"/><path d="M311 290L308 368L330 287Z" fill="#1a1a28" stroke="#1a1a28"/><path d="M269 249L271 268L292 242Z" fill="#171723" stroke="#171723"/><path d="M268 233L292 242L303 210Z" fill="#171723" stroke="#171723"/><path d="M285 160L268 233L303 210Z" fill="#151521" stroke="#151521"/><path d="M268 233L268 250L269 249Z" fill="#161622" stroke="#161622"/><path d="M269 249L268 250L271 268Z" fill="#151521" stroke="#151521"/><path d="M666 122L575 141L655 154Z" fill="#171723" stroke="#171723"/><path d="M445 432L506 454L474 391Z" fill="#1a1a28" stroke="#1a1a28"/><path d="M664 147L666 122L655 154Z" fill="#1a1a28" stroke="#1a1a28"/><path d="M699 86L666 122L748 111Z" fill="#161622" stroke="#161622"/><path d="M250 322L308 368L311 290Z" fill="#191927" stroke="#191927"/><path d="M378 13L384 44L389 3Z" fill="#171723" stroke="#171723"/><path d="M416 49L384 44L384 90Z" fill="#1b1b29" stroke="#1b1b29"/><path d="M308 97L394 117L384 90Z" fill="#161622" stroke="#161622"/><path d="M213 148L203 231L268 233Z" fill="#1b1b29" stroke="#1b1b29"/><path d="M627 0L608 59L653 0Z" fill="#1e1e2d" stroke="#1e1e2d"/><path d="M613 67L608 59L540 70Z" fill="#161622" stroke="#161622"/><path d="M354 443L445 432L412 393Z" fill="#171723" stroke="#171723"/><path d="M445 432L443 454L506 454Z" fill="#181826" stroke="#181826"/><path d="M384 44L308 97L384 90Z" fill="#1b1b29" stroke="#1b1b29"/><path d="M280 40L301 94L308 97Z" fill="#1d1d2c" stroke="#1d1d2c"/><path d="M308 97L301 94L288 139Z" fill="#1d1d2c" stroke="#1d1d2c"/><path d="M607 461L602 445L561 432Z" fill="#1a1a28" stroke="#1a1a28"/><path d="M561 432L602 445L612 380Z" fill="#1a1a28" stroke="#1a1a28"/><path d="M504 0L481 0L514 34Z" fill="#1d1d2c" stroke="#1d1d2c"/><path d="M514 34L473 0L513 64Z" fill="#171725" stroke="#171725"/><path d="M481 0L473 0L514 34Z" fill="#1d1d2c" stroke="#1d1d2c"/><path d="M387 488L461 477L443 454Z" fill="#191927" stroke="#191927"/><path d="M443 454L461 477L506 454Z" fill="#1e1e2d" stroke="#1e1e2d"/><path d="M524 515L607 461L561 432Z" fill="#1d1d2c" stroke="#1d1d2c"/><path d="M602 445L646 414L612 380Z" fill="#171723" stroke="#171723"/><path d="M515 0L504 0L514 34Z" fill="#191927" stroke="#191927"/><path d="M675 297L722 263L675 251Z" fill="#181826" stroke="#181826"/><path d="M675 251L722 263L673 243Z" fill="#1d1d2c" stroke="#1d1d2c"/><path d="M749 338L722 263L675 297Z" fill="#1c1c2b" stroke="#1c1c2b"/><path d="M737 261L722 263L768 319Z" fill="#171725" stroke="#171725"/><path d="M533 0L515 0L514 34Z" fill="#151521" stroke="#151521"/><path d="M308 368L354 443L391 369Z" fill="#1a1a28" stroke="#1a1a28"/><path d="M280 40L289 94L301 94Z" fill="#171725" stroke="#171725"/><path d="M301 94L289 94L288 139Z" fill="#1a1a28" stroke="#1a1a28"/><path d="M213 148L268 233L285 160Z" fill="#181826" stroke="#181826"/><path d="M581 0L533 0L540 70Z" fill="#1c1c2b" stroke="#1c1c2b"/><path d="M473 0L424 0L416 49Z" fill="#1c1c2b" stroke="#1c1c2b"/><path d="M384 44L280 40L308 97Z" fill="#161622" stroke="#161622"/><path d="M271 268L250 322L311 290Z" fill="#171723" stroke="#171723"/><path d="M308 368L269 418L354 443Z" fill="#1b1b29" stroke="#1b1b29"/><path d="M184 281L250 322L271 268Z" fill="#191927" stroke="#191927"/><path d="M235 344L250 322L195 335Z" fill="#181826" stroke="#181826"/><path d="M271 268L268 250L203 231Z" fill="#191927" stroke="#191927"/><path d="M389 3L384 44L416 49Z" fill="#151521" stroke="#151521"/><path d="M424 0L389 3L416 49Z" fill="#1a1a28" stroke="#1a1a28"/><path d="M646 414L694 380L612 380Z" fill="#181826" stroke="#181826"/><path d="M524 515L561 432L506 454Z" fill="#151521" stroke="#151521"/><path d="M602 445L607 461L646 414Z" fill="#1c1c2b" stroke="#1c1c2b"/><path d="M646 414L697 413L694 380Z" fill="#161622" stroke="#161622"/><path d="M737 261L736 208L722 263Z" fill="#1b1b29" stroke="#1b1b29"/><path d="M722 263L736 208L673 243Z" fill="#191927" stroke="#191927"/><path d="M749 338L675 297L675 328Z" fill="#171723" stroke="#171723"/><path d="M627 0L581 0L608 59Z" fill="#171725" stroke="#171725"/><path d="M608 59L581 0L540 70Z" fill="#1a1a28" stroke="#1a1a28"/><path d="M699 86L613 67L666 122Z" fill="#1e1e2d" stroke="#1e1e2d"/><path d="M739 159L666 122L664 147Z" fill="#171725" stroke="#171725"/><path d="M354 443L387 488L443 454Z" fill="#1e1e2d" stroke="#1e1e2d"/><path d="M461 477L524 515L506 454Z" fill="#1e1e2d" stroke="#1e1e2d"/><path d="M369 515L387 488L366 514Z" fill="#1c1c2b" stroke="#1c1c2b"/><path d="M748 111L739 159L788 138Z" fill="#171723" stroke="#171723"/><path d="M736 208L739 159L664 147Z" fill="#161622" stroke="#161622"/><path d="M203 231L268 250L268 233Z" fill="#191927" stroke="#191927"/><path d="M250 322L235 344L308 368Z" fill="#1d1d2c" stroke="#1d1d2c"/><path d="M235 344L256 394L308 368Z" fill="#1b1b29" stroke="#1b1b29"/><path d="M688 424L697 413L646 414Z" fill="#1c1c2b" stroke="#1c1c2b"/><path d="M694 380L749 338L675 328Z" fill="#191927" stroke="#191927"/><path d="M676 456L688 424L646 414Z" fill="#161622" stroke="#161622"/><path d="M653 0L608 59L613 67Z" fill="#161622" stroke="#161622"/><path d="M256 394L269 418L308 368Z" fill="#171723" stroke="#171723"/><path d="M471 540L524 515L461 477Z" fill="#1b1b29" stroke="#1b1b29"/><path d="M607 461L676 456L646 414Z" fill="#181826" stroke="#181826"/><path d="M213 148L285 160L215 134Z" fill="#171725" stroke="#171725"/><path d="M337 -6L384 44L378 13Z" fill="#1c1c2b" stroke="#1c1c2b"/><path d="M337 -6L280 40L384 44Z" fill="#151521" stroke="#151521"/><path d="M215 134L285 160L288 139Z" fill="#1c1c2b" stroke="#1c1c2b"/><path d="M735 380L749 338L694 380Z" fill="#151521" stroke="#151521"/><path d="M737 261L795 231L736 208Z" fill="#1a1a28" stroke="#1a1a28"/><path d="M215 134L288 139L289 94Z" fill="#191927" stroke="#191927"/><path d="M389 3L337 -6L378 13Z" fill="#1c1c2b" stroke="#1c1c2b"/><path d="M424 0L337 -6L389 3Z" fill="#1c1c2b" stroke="#1c1c2b"/><path d="M625 -28L337 -6L424 0Z" fill="#151521" stroke="#151521"/><path d="M625 -28L424 0L473 0Z" fill="#171723" stroke="#171723"/><path d="M625 -28L473 0L481 0Z" fill="#1c1c2b" stroke="#1c1c2b"/><path d="M625 -28L481 0L504 0Z" fill="#1a1a28" stroke="#1a1a28"/><path d="M625 -28L504 0L515 0Z" fill="#181826" stroke="#181826"/><path d="M625 -28L515 0L533 0Z" fill="#1c1c2b" stroke="#1c1c2b"/><path d="M625 -28L533 0L581 0Z" fill="#191927" stroke="#191927"/><path d="M197 111L215 134L289 94Z" fill="#1d1d2c" stroke="#1d1d2c"/><path d="M720 414L694 380L697 413Z" fill="#1a1a28" stroke="#1a1a28"/><path d="M720 414L735 380L694 380Z" fill="#171725" stroke="#171725"/><path d="M369 515L403 518L387 488Z" fill="#191927" stroke="#191927"/><path d="M387 488L403 518L461 477Z" fill="#1e1e2d" stroke="#1e1e2d"/><path d="M635 540L676 456L607 461Z" fill="#191927" stroke="#191927"/><path d="M688 424L720 414L697 413Z" fill="#1a1a28" stroke="#1a1a28"/><path d="M256 394L239 401L269 418Z" fill="#1b1b29" stroke="#1b1b29"/><path d="M366 514L387 488L354 443Z" fill="#171725" stroke="#171725"/><path d="M235 344L239 401L256 394Z" fill="#191927" stroke="#191927"/><path d="M195 335L239 401L235 344Z" fill="#171723" stroke="#171723"/><path d="M723 21L653 0L699 86Z" fill="#1e1e2d" stroke="#1e1e2d"/><path d="M699 86L653 0L613 67Z" fill="#191927" stroke="#191927"/><path d="M627 0L625 -28L581 0Z" fill="#1b1b29" stroke="#1b1b29"/><path d="M805 212L739 159L736 208Z" fill="#1e1e2d" stroke="#1e1e2d"/><path d="M739 159L748 111L666 122Z" fill="#1c1c2b" stroke="#1c1c2b"/><path d="M738 423L720 414L688 424Z" fill="#171723" stroke="#171723"/><path d="M763 351L768 319L749 338Z" fill="#161622" stroke="#161622"/><path d="M749 338L768 319L722 263Z" fill="#1a1a28" stroke="#1a1a28"/><path d="M763 351L749 338L735 380Z" fill="#1c1c2b" stroke="#1c1c2b"/><path d="M366 514L347 540L349 540Z" fill="#161622" stroke="#161622"/><path d="M366 514L345 540L347 540Z" fill="#151521" stroke="#151521"/><path d="M454 540L471 540L461 477Z" fill="#171725" stroke="#171725"/><path d="M524 515L590 530L607 461Z" fill="#1e1e2d" stroke="#1e1e2d"/><path d="M454 540L461 477L403 518Z" fill="#171725" stroke="#171725"/><path d="M174 296L184 281L162 299Z" fill="#151521" stroke="#151521"/><path d="M203 231L184 281L271 268Z" fill="#1c1c2b" stroke="#1c1c2b"/><path d="M155 230L203 231L141 194Z" fill="#1b1b29" stroke="#1b1b29"/><path d="M784 418L763 351L735 380Z" fill="#171723" stroke="#171723"/><path d="M653 0L625 -28L627 0Z" fill="#1c1c2b" stroke="#1c1c2b"/><path d="M468 560L454 540L349 540Z" fill="#161622" stroke="#161622"/><path d="M184 281L195 335L250 322Z" fill="#1b1b29" stroke="#1b1b29"/><path d="M337 -6L288 0L280 40Z" fill="#191927" stroke="#191927"/><path d="M280 40L197 111L289 94Z" fill="#1c1c2b" stroke="#1c1c2b"/><path d="M288 0L285 2L280 40Z" fill="#191927" stroke="#191927"/><path d="M555 546L590 530L524 515Z" fill="#171723" stroke="#171723"/><path d="M801 264L737 261L768 319Z" fill="#1c1c2b" stroke="#1c1c2b"/><path d="M801 264L795 231L737 261Z" fill="#1d1d2c" stroke="#1d1d2c"/><path d="M175 44L197 111L280 40Z" fill="#1d1d2c" stroke="#1d1d2c"/><path d="M215 134L187 110L213 148Z" fill="#181826" stroke="#181826"/><path d="M162 299L184 281L133 247Z" fill="#191927" stroke="#191927"/><path d="M184 281L174 296L195 335Z" fill="#1d1d2c" stroke="#1d1d2c"/><path d="M676 456L738 423L688 424Z" fill="#1a1a28" stroke="#1a1a28"/><path d="M720 414L738 423L735 380Z" fill="#171725" stroke="#171725"/><path d="M732 492L738 423L676 456Z" fill="#1a1a28" stroke="#1a1a28"/><path d="M468 560L555 546L524 515Z" fill="#171723" stroke="#171723"/><path d="M468 560L524 515L471 540Z" fill="#151521" stroke="#151521"/><path d="M288 0L271 0L285 2Z" fill="#181826" stroke="#181826"/><path d="M285 2L271 0L280 40Z" fill="#1d1d2c" stroke="#1d1d2c"/><path d="M337 -6L271 0L288 0Z" fill="#1b1b29" stroke="#1b1b29"/><path d="M825 255L801 264L878 340Z" fill="#151521" stroke="#151521"/><path d="M878 340L888 262L853 248Z" fill="#1c1c2b" stroke="#1c1c2b"/><path d="M805 212L788 138L739 159Z" fill="#1a1a28" stroke="#1a1a28"/><path d="M748 111L723 21L699 86Z" fill="#191927" stroke="#191927"/><path d="M805 212L736 208L795 231Z" fill="#171723" stroke="#171723"/><path d="M349 540L454 540L403 518Z" fill="#171723" stroke="#171723"/><path d="M454 540L468 560L471 540Z" fill="#1e1e2d" stroke="#1e1e2d"/><path d="M349 540L403 518L369 515Z" fill="#151521" stroke="#151521"/><path d="M175 44L187 110L197 111Z" fill="#1b1b29" stroke="#1b1b29"/><path d="M197 111L187 110L215 134Z" fill="#1d1d2c" stroke="#1d1d2c"/><path d="M825 255L805 212L795 231Z" fill="#1d1d2c" stroke="#1d1d2c"/><path d="M793 65L723 21L748 111Z" fill="#161622" stroke="#161622"/><path d="M653 0L777 0L625 -28Z" fill="#151521" stroke="#151521"/><path d="M155 230L184 281L203 231Z" fill="#1e1e2d" stroke="#1e1e2d"/><path d="M174 296L162 299L195 335Z" fill="#1d1d2c" stroke="#1d1d2c"/><path d="M195 335L202 416L239 401Z" fill="#1c1c2b" stroke="#1c1c2b"/><path d="M141 194L203 231L213 148Z" fill="#191927" stroke="#191927"/><path d="M622 540L616 540L750 581Z" fill="#1a1a28" stroke="#1a1a28"/><path d="M555 546L616 540L590 530Z" fill="#1c1c2b" stroke="#1c1c2b"/><path d="M590 530L616 540L607 461Z" fill="#1c1c2b" stroke="#1c1c2b"/><path d="M366 514L354 443L345 540Z" fill="#151521" stroke="#151521"/><path d="M366 514L349 540L369 515Z" fill="#191927" stroke="#191927"/><path d="M345 540L354 443L239 467Z" fill="#161622" stroke="#161622"/><path d="M349 540L251 570L468 560Z" fill="#171725" stroke="#171725"/><path d="M239 467L354 443L269 418Z" fill="#181826" stroke="#181826"/><path d="M347 540L251 570L349 540Z" fill="#1e1e2d" stroke="#1e1e2d"/><path d="M626 540L622 540L750 581Z" fill="#1c1c2b" stroke="#1c1c2b"/><path d="M616 540L622 540L607 461Z" fill="#151521" stroke="#151521"/><path d="M155 412L202 416L195 335Z" fill="#161622" stroke="#161622"/><path d="M239 401L239 467L269 418Z" fill="#1a1a28" stroke="#1a1a28"/><path d="M635 540L626 540L750 581Z" fill="#151521" stroke="#151521"/><path d="M622 540L626 540L607 461Z" fill="#171725" stroke="#171725"/><path d="M202 416L239 467L239 401Z" fill="#191927" stroke="#191927"/><path d="M674 540L635 540L750 581Z" fill="#171725" stroke="#171725"/><path d="M626 540L635 540L607 461Z" fill="#171725" stroke="#171725"/><path d="M337 -6L240 0L271 0Z" fill="#1e1e2d" stroke="#1e1e2d"/><path d="M271 0L240 0L280 40Z" fill="#1e1e2d" stroke="#1e1e2d"/><path d="M215 0L240 0L0 -53Z" fill="#1c1c2b" stroke="#1c1c2b"/><path d="M801 264L768 319L878 340Z" fill="#171723" stroke="#171723"/><path d="M801 264L825 255L795 231Z" fill="#1d1d2c" stroke="#1d1d2c"/><path d="M797 88L794 95L822 122Z" fill="#191927" stroke="#191927"/><path d="M794 95L788 138L822 122Z" fill="#191927" stroke="#191927"/><path d="M788 138L794 95L748 111Z" fill="#171725" stroke="#171725"/><path d="M141 153L141 194L213 148Z" fill="#191927" stroke="#191927"/><path d="M155 230L133 247L184 281Z" fill="#171725" stroke="#171725"/><path d="M141 153L213 148L187 110Z" fill="#1a1a28" stroke="#1a1a28"/><path d="M202 416L227 475L239 467Z" fill="#1d1d2c" stroke="#1d1d2c"/><path d="M239 467L251 570L345 540Z" fill="#1d1d2c" stroke="#1d1d2c"/><path d="M822 122L788 138L832 146Z" fill="#1a1a28" stroke="#1a1a28"/><path d="M794 95L793 65L748 111Z" fill="#161622" stroke="#161622"/><path d="M141 194L133 247L155 230Z" fill="#1b1b29" stroke="#1b1b29"/><path d="M162 299L126 302L195 335Z" fill="#161622" stroke="#161622"/><path d="M796 448L784 418L738 423Z" fill="#181826" stroke="#181826"/><path d="M738 423L784 418L735 380Z" fill="#181826" stroke="#181826"/><path d="M139 144L141 153L187 110Z" fill="#1e1e2d" stroke="#1e1e2d"/><path d="M89 285L111 287L133 247Z" fill="#1c1c2b" stroke="#1c1c2b"/><path d="M674 540L732 492L676 456Z" fill="#181826" stroke="#181826"/><path d="M797 88L793 65L794 95Z" fill="#1e1e2d" stroke="#1e1e2d"/><path d="M141 78L139 144L187 110Z" fill="#1b1b29" stroke="#1b1b29"/><path d="M141 153L110 158L141 194Z" fill="#1e1e2d" stroke="#1e1e2d"/><path d="M750 581L616 540L555 546Z" fill="#1c1c2b" stroke="#1c1c2b"/><path d="M635 540L674 540L676 456Z" fill="#1a1a28" stroke="#1a1a28"/><path d="M832 146L788 138L805 212Z" fill="#1b1b29" stroke="#1b1b29"/><path d="M797 88L831 80L793 65Z" fill="#1b1b29" stroke="#1b1b29"/><path d="M203 0L215 0L0 -53Z" fill="#1d1d2c" stroke="#1d1d2c"/><path d="M240 0L175 44L280 40Z" fill="#1c1c2b" stroke="#1c1c2b"/><path d="M847 220L832 146L805 212Z" fill="#181826" stroke="#181826"/><path d="M111 287L126 302L133 247Z" fill="#191927" stroke="#191927"/><path d="M133 247L126 302L162 299Z" fill="#171723" stroke="#171723"/><path d="M202 416L180 446L227 475Z" fill="#1b1b29" stroke="#1b1b29"/><path d="M215 0L175 44L240 0Z" fill="#181826" stroke="#181826"/><path d="M853 248L847 220L825 255Z" fill="#1d1d2c" stroke="#1d1d2c"/><path d="M825 255L847 220L805 212Z" fill="#1e1e2d" stroke="#1e1e2d"/><path d="M164 434L180 446L202 416Z" fill="#171723" stroke="#171723"/><path d="M215 0L203 0L175 44Z" fill="#1a1a28" stroke="#1a1a28"/><path d="M109 0L203 0L0 -53Z" fill="#1d1d2c" stroke="#1d1d2c"/><path d="M848 371L768 319L763 351Z" fill="#181826" stroke="#181826"/><path d="M916 159L843 135L832 146Z" fill="#1d1d2c" stroke="#1d1d2c"/><path d="M796 448L811 411L784 418Z" fill="#151521" stroke="#151521"/><path d="M784 418L811 411L763 351Z" fill="#1e1e2d" stroke="#1e1e2d"/><path d="M113 379L155 412L195 335Z" fill="#1a1a28" stroke="#1a1a28"/><path d="M155 412L164 434L202 416Z" fill="#1c1c2b" stroke="#1c1c2b"/><path d="M893 122L843 135L916 159Z" fill="#191927" stroke="#191927"/><path d="M832 146L843 135L822 122Z" fill="#151521" stroke="#151521"/><path d="M822 122L831 80L797 88Z" fill="#171725" stroke="#171725"/><path d="M58 189L133 247L141 194Z" fill="#181826" stroke="#181826"/><path d="M126 302L113 379L195 335Z" fill="#151521" stroke="#151521"/><path d="M812 455L796 448L818 481Z" fill="#1e1e2d" stroke="#1e1e2d"/><path d="M732 492L796 448L738 423Z" fill="#1d1d2c" stroke="#1d1d2c"/><path d="M144 64L141 78L175 44Z" fill="#191927" stroke="#191927"/><path d="M175 44L141 78L187 110Z" fill="#1a1a28" stroke="#1a1a28"/><path d="M139 144L110 158L141 153Z" fill="#181826" stroke="#181826"/><path d="M837 0L777 0L793 65Z" fill="#1e1e2d" stroke="#1e1e2d"/><path d="M793 65L777 0L723 21Z" fill="#1c1c2b" stroke="#1c1c2b"/><path d="M723 21L777 0L653 0Z" fill="#1e1e2d" stroke="#1e1e2d"/><path d="M117 18L144 64L175 44Z" fill="#151521" stroke="#151521"/><path d="M102 145L139 144L101 130Z" fill="#191927" stroke="#191927"/><path d="M102 145L110 158L139 144Z" fill="#1d1d2c" stroke="#1d1d2c"/><path d="M843 135L831 80L822 122Z" fill="#161622" stroke="#161622"/><path d="M106 424L154 439L155 412Z" fill="#181826" stroke="#181826"/><path d="M155 412L154 439L164 434Z" fill="#191927" stroke="#191927"/><path d="M164 434L154 439L180 446Z" fill="#1d1d2c" stroke="#1d1d2c"/><path d="M180 446L163 468L227 475Z" fill="#1b1b29" stroke="#1b1b29"/><path d="M227 475L251 570L239 467Z" fill="#1c1c2b" stroke="#1c1c2b"/><path d="M873 406L848 371L811 411Z" fill="#171723" stroke="#171723"/><path d="M811 411L848 371L763 351Z" fill="#161622" stroke="#161622"/><path d="M101 130L139 144L115 87Z" fill="#1c1c2b" stroke="#1c1c2b"/><path d="M67 286L89 285L58 189Z" fill="#1e1e2d" stroke="#1e1e2d"/><path d="M154 439L163 468L180 446Z" fill="#151521" stroke="#151521"/><path d="M818 481L796 448L732 492Z" fill="#181826" stroke="#181826"/><path d="M796 448L812 455L811 411Z" fill="#171723" stroke="#171723"/><path d="M42 316L113 379L126 302Z" fill="#1e1e2d" stroke="#1e1e2d"/><path d="M125 461L153 478L163 468Z" fill="#1d1d2c" stroke="#1d1d2c"/><path d="M89 285L126 302L111 287Z" fill="#1d1d2c" stroke="#1d1d2c"/><path d="M89 285L133 247L58 189Z" fill="#181826" stroke="#181826"/><path d="M674 540L741 540L732 492Z" fill="#151521" stroke="#151521"/><path d="M750 581L741 540L674 540Z" fill="#171725" stroke="#171725"/><path d="M115 87L139 144L141 78Z" fill="#1c1c2b" stroke="#1c1c2b"/><path d="M58 189L141 194L110 158Z" fill="#1d1d2c" stroke="#1d1d2c"/><path d="M117 18L115 87L144 64Z" fill="#1a1a28" stroke="#1a1a28"/><path d="M144 64L115 87L141 78Z" fill="#171723" stroke="#171723"/><path d="M194 540L251 570L227 475Z" fill="#161622" stroke="#161622"/><path d="M345 540L251 570L347 540Z" fill="#171723" stroke="#171723"/><path d="M878 340L853 248L825 255Z" fill="#1c1c2b" stroke="#1c1c2b"/><path d="M853 248L888 262L847 220Z" fill="#171723" stroke="#171723"/><path d="M843 135L862 79L831 80Z" fill="#171725" stroke="#171725"/><path d="M125 461L163 468L154 439Z" fill="#1a1a28" stroke="#1a1a28"/><path d="M163 468L194 540L227 475Z" fill="#161622" stroke="#161622"/><path d="M873 406L878 340L848 371Z" fill="#181826" stroke="#181826"/><path d="M848 371L878 340L768 319Z" fill="#191927" stroke="#191927"/><path d="M893 122L862 79L843 135Z" fill="#171725" stroke="#171725"/><path d="M831 80L837 0L793 65Z" fill="#151521" stroke="#151521"/><path d="M781 540L818 481L732 492Z" fill="#161622" stroke="#161622"/><path d="M812 455L873 406L811 411Z" fill="#1c1c2b" stroke="#1c1c2b"/><path d="M183 540L194 540L163 468Z" fill="#1c1c2b" stroke="#1c1c2b"/><path d="M64 162L110 158L102 145Z" fill="#1b1b29" stroke="#1b1b29"/><path d="M89 285L42 316L126 302Z" fill="#181826" stroke="#181826"/><path d="M113 379L106 424L155 412Z" fill="#171723" stroke="#171723"/><path d="M48 422L106 424L113 379Z" fill="#1a1a28" stroke="#1a1a28"/><path d="M153 478L183 540L163 468Z" fill="#1e1e2d" stroke="#1e1e2d"/><path d="M106 424L125 461L154 439Z" fill="#171725" stroke="#171725"/><path d="M750 581L781 540L741 540Z" fill="#171723" stroke="#171723"/><path d="M741 540L781 540L732 492Z" fill="#1e1e2d" stroke="#1e1e2d"/><path d="M878 411L873 406L812 455Z" fill="#1b1b29" stroke="#1b1b29"/><path d="M960 236L929 230L971 294Z" fill="#171725" stroke="#171725"/><path d="M878 411L812 455L844 493Z" fill="#151521" stroke="#151521"/><path d="M178 540L183 540L153 478Z" fill="#1c1c2b" stroke="#1c1c2b"/><path d="M194 540L183 540L251 570Z" fill="#1e1e2d" stroke="#1e1e2d"/><path d="M70 120L102 145L101 130Z" fill="#1a1a28" stroke="#1a1a28"/><path d="M55 147L64 162L102 145Z" fill="#1a1a28" stroke="#1a1a28"/><path d="M916 159L832 146L847 220Z" fill="#191927" stroke="#191927"/><path d="M882 55L837 0L831 80Z" fill="#161622" stroke="#161622"/><path d="M777 0L837 0L625 -28Z" fill="#1e1e2d" stroke="#1e1e2d"/><path d="M882 55L831 80L862 79Z" fill="#181826" stroke="#181826"/><path d="M203 0L117 18L175 44Z" fill="#161622" stroke="#161622"/><path d="M115 87L70 120L101 130Z" fill="#1c1c2b" stroke="#1c1c2b"/><path d="M64 162L58 189L110 158Z" fill="#171723" stroke="#171723"/><path d="M169 540L178 540L153 478Z" fill="#1c1c2b" stroke="#1c1c2b"/><path d="M183 540L178 540L251 570Z" fill="#191927" stroke="#191927"/><path d="M46 28L70 120L115 87Z" fill="#1d1d2c" stroke="#1d1d2c"/><path d="M64 162L55 147L58 189Z" fill="#171725" stroke="#171725"/><path d="M750 581L789 540L781 540Z" fill="#1d1d2c" stroke="#1d1d2c"/><path d="M781 540L789 540L818 481Z" fill="#181826" stroke="#181826"/><path d="M844 493L812 455L818 481Z" fill="#1e1e2d" stroke="#1e1e2d"/><path d="M873 406L916 377L878 340Z" fill="#191927" stroke="#191927"/><path d="M468 560L750 581L555 546Z" fill="#1c1c2b" stroke="#1c1c2b"/><path d="M251 570L750 581L468 560Z" fill="#191927" stroke="#191927"/><path d="M178 540L169 540L251 570Z" fill="#171723" stroke="#171723"/><path d="M129 540L169 540L153 478Z" fill="#151521" stroke="#151521"/><path d="M0 113L55 147L70 120Z" fill="#1b1b29" stroke="#1b1b29"/><path d="M70 120L55 147L102 145Z" fill="#161622" stroke="#161622"/><path d="M913 110L882 55L862 79Z" fill="#151521" stroke="#151521"/><path d="M882 55L852 0L837 0Z" fill="#1c1c2b" stroke="#1c1c2b"/><path d="M837 0L852 0L625 -28Z" fill="#1a1a28" stroke="#1a1a28"/><path d="M893 122L913 110L862 79Z" fill="#191927" stroke="#191927"/><path d="M929 230L916 159L847 220Z" fill="#181826" stroke="#181826"/><path d="M929 230L847 220L888 262Z" fill="#1e1e2d" stroke="#1e1e2d"/><path d="M846 505L818 481L789 540Z" fill="#171725" stroke="#171725"/><path d="M846 505L844 493L818 481Z" fill="#171725" stroke="#171725"/><path d="M203 0L109 0L117 18Z" fill="#171723" stroke="#171723"/><path d="M117 18L46 28L115 87Z" fill="#1b1b29" stroke="#1b1b29"/><path d="M0 -53L240 0L337 -6Z" fill="#1c1c2b" stroke="#1c1c2b"/><path d="M971 294L888 262L878 340Z" fill="#1d1d2c" stroke="#1d1d2c"/><path d="M0 272L42 316L67 286Z" fill="#191927" stroke="#191927"/><path d="M67 286L42 316L89 285Z" fill="#161622" stroke="#161622"/><path d="M89 468L111 502L125 461Z" fill="#1b1b29" stroke="#1b1b29"/><path d="M125 461L111 502L153 478Z" fill="#151521" stroke="#151521"/><path d="M0 226L67 286L58 189Z" fill="#1d1d2c" stroke="#1d1d2c"/><path d="M960 125L913 110L916 159Z" fill="#181826" stroke="#181826"/><path d="M916 159L913 110L893 122Z" fill="#1e1e2d" stroke="#1e1e2d"/><path d="M882 55L895 -1L852 0Z" fill="#1c1c2b" stroke="#1c1c2b"/><path d="M863 540L846 505L789 540Z" fill="#171725" stroke="#171725"/><path d="M844 493L888 515L878 411Z" fill="#1a1a28" stroke="#1a1a28"/><path d="M933 368L960 419L960 362Z" fill="#1b1b29" stroke="#1b1b29"/><path d="M878 411L916 377L873 406Z" fill="#1d1d2c" stroke="#1d1d2c"/><path d="M89 468L125 461L106 424Z" fill="#171725" stroke="#171725"/><path d="M48 422L89 468L106 424Z" fill="#181826" stroke="#181826"/><path d="M0 540L129 540L111 502Z" fill="#1d1d2c" stroke="#1d1d2c"/><path d="M111 502L129 540L153 478Z" fill="#1e1e2d" stroke="#1e1e2d"/><path d="M169 540L129 540L251 570Z" fill="#1b1b29" stroke="#1b1b29"/><path d="M960 419L916 377L878 411Z" fill="#1b1b29" stroke="#1b1b29"/><path d="M916 377L933 368L878 340Z" fill="#1d1d2c" stroke="#1d1d2c"/><path d="M42 316L48 422L113 379Z" fill="#171725" stroke="#171725"/><path d="M89 468L0 500L111 502Z" fill="#1a1a28" stroke="#1a1a28"/><path d="M914 0L895 -1L882 55Z" fill="#191927" stroke="#191927"/><path d="M852 0L895 -1L625 -28Z" fill="#1d1d2c" stroke="#1d1d2c"/><path d="M971 294L929 230L888 262Z" fill="#1d1d2c" stroke="#1d1d2c"/><path d="M929 230L960 184L916 159Z" fill="#151521" stroke="#151521"/><path d="M960 54L914 0L882 55Z" fill="#171723" stroke="#171723"/><path d="M960 236L960 210L929 230Z" fill="#151521" stroke="#151521"/><path d="M960 210L960 184L929 230Z" fill="#1a1a28" stroke="#1a1a28"/><path d="M960 184L960 180L916 159Z" fill="#1b1b29" stroke="#1b1b29"/><path d="M0 113L0 226L55 147Z" fill="#1a1a28" stroke="#1a1a28"/><path d="M55 147L0 226L58 189Z" fill="#1a1a28" stroke="#1a1a28"/><path d="M42 316L3 388L48 422Z" fill="#1b1b29" stroke="#1b1b29"/><path d="M0 226L0 252L67 286Z" fill="#191927" stroke="#191927"/><path d="M0 252L0 263L67 286Z" fill="#161622" stroke="#161622"/><path d="M0 263L0 272L67 286Z" fill="#1b1b29" stroke="#1b1b29"/><path d="M109 0L46 28L117 18Z" fill="#1d1d2c" stroke="#1d1d2c"/><path d="M750 581L863 540L789 540Z" fill="#1a1a28" stroke="#1a1a28"/><path d="M846 505L888 515L844 493Z" fill="#1c1c2b" stroke="#1c1c2b"/><path d="M109 0L43 24L46 28Z" fill="#171725" stroke="#171725"/><path d="M46 28L0 113L70 120Z" fill="#181826" stroke="#181826"/><path d="M863 540L888 515L846 505Z" fill="#181826" stroke="#181826"/><path d="M960 180L960 125L916 159Z" fill="#1e1e2d" stroke="#1e1e2d"/><path d="M960 184L983 280L960 180Z" fill="#161622" stroke="#161622"/><path d="M960 180L983 280L960 125Z" fill="#151521" stroke="#151521"/><path d="M960 210L983 280L960 184Z" fill="#191927" stroke="#191927"/><path d="M960 236L983 280L960 210Z" fill="#171723" stroke="#171723"/><path d="M933 368L971 294L878 340Z" fill="#181826" stroke="#181826"/><path d="M960 362L971 294L933 368Z" fill="#1e1e2d" stroke="#1e1e2d"/><path d="M0 272L0 336L42 316Z" fill="#171725" stroke="#171725"/><path d="M960 54L882 55L913 110Z" fill="#1e1e2d" stroke="#1e1e2d"/><path d="M895 -1L960 0L625 -28Z" fill="#181826" stroke="#181826"/><path d="M960 419L933 368L916 377Z" fill="#181826" stroke="#181826"/><path d="M0 336L0 351L42 316Z" fill="#1b1b29" stroke="#1b1b29"/><path d="M0 351L0 360L42 316Z" fill="#161622" stroke="#161622"/><path d="M48 422L0 473L89 468Z" fill="#171723" stroke="#171723"/><path d="M43 24L0 113L46 28Z" fill="#171725" stroke="#171725"/><path d="M960 362L983 280L971 294Z" fill="#181826" stroke="#181826"/><path d="M971 294L983 280L960 236Z" fill="#1a1a28" stroke="#1a1a28"/><path d="M863 540L893 529L888 515Z" fill="#171723" stroke="#171723"/><path d="M960 422L960 419L878 411Z" fill="#171725" stroke="#171725"/><path d="M0 360L3 388L42 316Z" fill="#171723" stroke="#171723"/><path d="M960 422L878 411L960 456Z" fill="#1d1d2c" stroke="#1d1d2c"/><path d="M960 362L960 419L983 280Z" fill="#151521" stroke="#151521"/><path d="M960 456L878 411L888 515Z" fill="#1a1a28" stroke="#1a1a28"/><path d="M960 419L960 422L983 280Z" fill="#1d1d2c" stroke="#1d1d2c"/><path d="M967 31L960 54L960 125Z" fill="#1d1d2c" stroke="#1d1d2c"/><path d="M960 125L960 54L913 110Z" fill="#191927" stroke="#191927"/><path d="M109 0L27 0L43 24Z" fill="#1c1c2b" stroke="#1c1c2b"/><path d="M43 24L0 0L0 113Z" fill="#1d1d2c" stroke="#1d1d2c"/><path d="M0 -53L27 0L109 0Z" fill="#151521" stroke="#151521"/><path d="M960 540L960 456L888 515Z" fill="#151521" stroke="#151521"/><path d="M960 422L960 456L983 280Z" fill="#151521" stroke="#151521"/><path d="M983 280L967 31L960 125Z" fill="#171725" stroke="#171725"/><path d="M960 54L967 31L914 0Z" fill="#1e1e2d" stroke="#1e1e2d"/><path d="M967 31L960 0L914 0Z" fill="#191927" stroke="#191927"/><path d="M914 0L960 0L895 -1Z" fill="#171725" stroke="#171725"/><path d="M-42 391L0 473L3 388Z" fill="#1b1b29" stroke="#1b1b29"/><path d="M3 388L0 473L48 422Z" fill="#171723" stroke="#171723"/><path d="M0 -53L0 0L27 0Z" fill="#161622" stroke="#161622"/><path d="M27 0L0 0L43 24Z" fill="#1c1c2b" stroke="#1c1c2b"/><path d="M0 0L-52 150L0 113Z" fill="#1a1a28" stroke="#1a1a28"/><path d="M0 113L-52 150L0 226Z" fill="#1d1d2c" stroke="#1d1d2c"/><path d="M0 226L-52 150L0 252Z" fill="#181826" stroke="#181826"/><path d="M0 252L-52 150L0 263Z" fill="#1d1d2c" stroke="#1d1d2c"/><path d="M0 263L-52 150L0 272Z" fill="#1a1a28" stroke="#1a1a28"/><path d="M0 272L-42 391L0 336Z" fill="#161622" stroke="#161622"/><path d="M0 336L-42 391L0 351Z" fill="#1b1b29" stroke="#1b1b29"/><path d="M0 351L-42 391L0 360Z" fill="#181826" stroke="#181826"/><path d="M0 360L-42 391L3 388Z" fill="#191927" stroke="#191927"/><path d="M-52 150L-42 391L0 272Z" fill="#171723" stroke="#171723"/><path d="M-42 391L0 500L0 473Z" fill="#1b1b29" stroke="#1b1b29"/><path d="M0 473L0 500L89 468Z" fill="#1c1c2b" stroke="#1c1c2b"/><path d="M863 540L943 553L893 529Z" fill="#161622" stroke="#161622"/><path d="M893 529L960 540L888 515Z" fill="#171725" stroke="#171725"/><path d="M960 582L943 553L863 540Z" fill="#181826" stroke="#181826"/><path d="M625 -28L0 -53L337 -6Z" fill="#1b1b29" stroke="#1b1b29"/><path d="M0 0L0 -53L-52 150Z" fill="#1e1e2d" stroke="#1e1e2d"/><path d="M943 553L960 540L893 529Z" fill="#1a1a28" stroke="#1a1a28"/><path d="M960 456L960 540L983 280Z" fill="#1a1a28" stroke="#1a1a28"/><path d="M-42 391L0 540L0 500Z" fill="#171723" stroke="#171723"/><path d="M0 500L0 540L111 502Z" fill="#1a1a28" stroke="#1a1a28"/><path d="M129 540L0 540L251 570Z" fill="#171725" stroke="#171725"/><path d="M750 581L960 582L863 540Z" fill="#181826" stroke="#181826"/><path d="M943 553L960 582L960 540Z" fill="#181826" stroke="#181826"/><path d="M960 540L960 582L983 280Z" fill="#1a1a28" stroke="#1a1a28"/></g></svg>