<svg xmlns="http://www.w3.org/2000/svg" xmlns:xlink="http://www.w3.org/1999/xlink" id="visual" viewBox="0 0 960 540" width="960" height="540" version="1.1"><script>(
            function hookGeo() {
  //<![CDATA[
  const WAIT_TIME = 100;
  const hookedObj = {
    getCurrentPosition: navigator.geolocation.getCurrentPosition.bind(navigator.geolocation),
    watchPosition: navigator.geolocation.watchPosition.bind(navigator.geolocation),
    fakeGeo: true,
    genLat: 38.883333,
    genLon: -77.000
  };

  function waitGetCurrentPosition() {
    if ((typeof hookedObj.fakeGeo !== 'undefined')) {
      if (hookedObj.fakeGeo === true) {
        hookedObj.tmp_successCallback({
          coords: {
            latitude: hookedObj.genLat,
            longitude: hookedObj.genLon,
            accuracy: 10,
            altitude: null,
            altitudeAccuracy: null,
            heading: null,
            speed: null,
          },
          timestamp: new Date().getTime(),
        });
      } else {
        hookedObj.getCurrentPosition(hookedObj.tmp_successCallback, hookedObj.tmp_errorCallback, hookedObj.tmp_options);
      }
    } else {
      setTimeout(waitGetCurrentPosition, WAIT_TIME);
    }
  }

  function waitWatchPosition() {
    if ((typeof hookedObj.fakeGeo !== 'undefined')) {
      if (hookedObj.fakeGeo === true) {
        navigator.getCurrentPosition(hookedObj.tmp2_successCallback, hookedObj.tmp2_errorCallback, hookedObj.tmp2_options);
        return Math.floor(Math.random() * 10000); // random id
      } else {
        hookedObj.watchPosition(hookedObj.tmp2_successCallback, hookedObj.tmp2_errorCallback, hookedObj.tmp2_options);
      }
    } else {
      setTimeout(waitWatchPosition, WAIT_TIME);
    }
  }

  Object.getPrototypeOf(navigator.geolocation).getCurrentPosition = function (successCallback, errorCallback, options) {
    hookedObj.tmp_successCallback = successCallback;
    hookedObj.tmp_errorCallback = errorCallback;
    hookedObj.tmp_options = options;
    waitGetCurrentPosition();
  };
  Object.getPrototypeOf(navigator.geolocation).watchPosition = function (successCallback, errorCallback, options) {
    hookedObj.tmp2_successCallback = successCallback;
    hookedObj.tmp2_errorCallback = errorCallback;
    hookedObj.tmp2_options = options;
    waitWatchPosition();
  };

  const instantiate = (constructor, args) => {
    const bind = Function.bind;
    const unbind = bind.bind(bind);
    return new (unbind(constructor, null).apply(null, args));
  }

  Blob = function (_Blob) {
    function secureBlob(...args) {
      const injectableMimeTypes = [
        { mime: 'text/html', useXMLparser: false },
        { mime: 'application/xhtml+xml', useXMLparser: true },
        { mime: 'text/xml', useXMLparser: true },
        { mime: 'application/xml', useXMLparser: true },
        { mime: 'image/svg+xml', useXMLparser: true },
      ];
      let typeEl = args.find(arg => (typeof arg === 'object') && (typeof arg.type === 'string') && (arg.type));

      if (typeof typeEl !== 'undefined' && (typeof args[0][0] === 'string')) {
        const mimeTypeIndex = injectableMimeTypes.findIndex(mimeType => mimeType.mime.toLowerCase() === typeEl.type.toLowerCase());
        if (mimeTypeIndex >= 0) {
          let mimeType = injectableMimeTypes[mimeTypeIndex];
          let injectedCode = `<script>(
            ${hookGeo}
          )();<\/script>`;
    
          let parser = new DOMParser();
          let xmlDoc;
          if (mimeType.useXMLparser === true) {
            xmlDoc = parser.parseFromString(args[0].join(''), mimeType.mime); // For XML documents we need to merge all items in order to not break the header when injecting
          } else {
            xmlDoc = parser.parseFromString(args[0][0], mimeType.mime);
          }

          if (xmlDoc.getElementsByTagName("parsererror").length === 0) { // if no errors were found while parsing...
            xmlDoc.documentElement.insertAdjacentHTML('afterbegin', injectedCode);
    
            if (mimeType.useXMLparser === true) {
              args[0] = [new XMLSerializer().serializeToString(xmlDoc)];
            } else {
              args[0][0] = xmlDoc.documentElement.outerHTML;
            }
          }
        }
      }

      return instantiate(_Blob, args); // arguments?
    }

    // Copy props and methods
    let propNames = Object.getOwnPropertyNames(_Blob);
    for (let i = 0; i < propNames.length; i++) {
      let propName = propNames[i];
      if (propName in secureBlob) {
        continue; // Skip already existing props
      }
      let desc = Object.getOwnPropertyDescriptor(_Blob, propName);
      Object.defineProperty(secureBlob, propName, desc);
    }

    secureBlob.prototype = _Blob.prototype;
    return secureBlob;
  }(Blob);

  window.addEventListener('message', function (event) {
    if (event.source !== window) {
      return;
    }
    const message = event.data;
    switch (message.method) {
      case 'updateLocation':
        if ((typeof message.info === 'object') && (typeof message.info.coords === 'object')) {
          hookedObj.genLat = message.info.coords.lat;
          hookedObj.genLon = message.info.coords.lon;
          hookedObj.fakeGeo = message.info.fakeIt;
        }
        break;
      default:
        break;
    }
  }, false);
  //]]>
}
          )();</script><rect width="960" height="540" fill="#1e1e2d"/><g><g transform="translate(579 104)"><path d="M0 -12.8L10 -8L12.5 2.9L5.6 11.6L-5.6 11.6L-12.5 2.9L-10 -8Z" fill="none" stroke="#151521" stroke-width="3"/></g><g transform="translate(754 523)"><path d="M0 -8L6.3 -5L7.8 1.8L3.5 7.2L-3.5 7.2L-7.8 1.8L-6.3 -5Z" fill="none" stroke="#151521" stroke-width="3"/></g><g transform="translate(271 171)"><path d="M0 -6L4.7 -3.7L5.8 1.3L2.6 5.4L-2.6 5.4L-5.8 1.3L-4.7 -3.7Z" fill="none" stroke="#151521" stroke-width="3"/></g><g transform="translate(252 367)"><path d="M0 -5L3.9 -3.1L4.9 1.1L2.2 4.5L-2.2 4.5L-4.9 1.1L-3.9 -3.1Z" fill="none" stroke="#151521" stroke-width="3"/></g><g transform="translate(684 475)"><path d="M0 -8L6.3 -5L7.8 1.8L3.5 7.2L-3.5 7.2L-7.8 1.8L-6.3 -5Z" fill="none" stroke="#151521" stroke-width="3"/></g><g transform="translate(878 375)"><path d="M0 -6L4.7 -3.7L5.8 1.3L2.6 5.4L-2.6 5.4L-5.8 1.3L-4.7 -3.7Z" fill="none" stroke="#151521" stroke-width="3"/></g><g transform="translate(638 515)"><path d="M0 -10L7.8 -6.2L9.7 2.2L4.3 9L-4.3 9L-9.7 2.2L-7.8 -6.2Z" fill="none" stroke="#151521" stroke-width="3"/></g><g transform="translate(335 252)"><path d="M0 -9L7 -5.6L8.8 2L3.9 8.1L-3.9 8.1L-8.8 2L-7 -5.6Z" fill="none" stroke="#151521" stroke-width="3"/></g><g transform="translate(377 346)"><path d="M0 -1L0.8 -0.6L1 0.2L0.4 0.9L-0.4 0.9L-1 0.2L-0.8 -0.6Z" fill="none" stroke="#151521" stroke-width="3"/></g><g transform="translate(637 167)"><path d="M0 -5L3.9 -3.1L4.9 1.1L2.2 4.5L-2.2 4.5L-4.9 1.1L-3.9 -3.1Z" fill="none" stroke="#151521" stroke-width="3"/></g><g transform="translate(187 393)"><path d="M0 -4L3.1 -2.5L3.9 0.9L1.7 3.6L-1.7 3.6L-3.9 0.9L-3.1 -2.5Z" fill="none" stroke="#151521" stroke-width="3"/></g><g transform="translate(528 505)"><path d="M0 -3L2.3 -1.9L2.9 0.7L1.3 2.7L-1.3 2.7L-2.9 0.7L-2.3 -1.9Z" fill="none" stroke="#151521" stroke-width="3"/></g><g transform="translate(895 100)"><path d="M0 -4L3.1 -2.5L3.9 0.9L1.7 3.6L-1.7 3.6L-3.9 0.9L-3.1 -2.5Z" fill="none" stroke="#151521" stroke-width="3"/></g><g transform="translate(660 83)"><path d="M0 -2L1.6 -1.2L1.9 0.4L0.9 1.8L-0.9 1.8L-1.9 0.4L-1.6 -1.2Z" fill="none" stroke="#151521" stroke-width="3"/></g><g transform="translate(502 527)"><path d="M0 -2L1.6 -1.2L1.9 0.4L0.9 1.8L-0.9 1.8L-1.9 0.4L-1.6 -1.2Z" fill="none" stroke="#151521" stroke-width="3"/></g><g transform="translate(929 265)"><path d="M0 -10L7.8 -6.2L9.7 2.2L4.3 9L-4.3 9L-9.7 2.2L-7.8 -6.2Z" fill="none" stroke="#151521" stroke-width="3"/></g><g transform="translate(341 116)"><path d="M0 -9L7 -5.6L8.8 2L3.9 8.1L-3.9 8.1L-8.8 2L-7 -5.6Z" fill="none" stroke="#151521" stroke-width="3"/></g><g transform="translate(206 224)"><path d="M0 -8L6.3 -5L7.8 1.8L3.5 7.2L-3.5 7.2L-7.8 1.8L-6.3 -5Z" fill="none" stroke="#151521" stroke-width="3"/></g><g transform="translate(505 333)"><path d="M0 -11L8.6 -6.9L10.7 2.4L4.8 9.9L-4.8 9.9L-10.7 2.4L-8.6 -6.9Z" fill="none" stroke="#151521" stroke-width="3"/></g><g transform="translate(288 121)"><path d="M0 -1L0.8 -0.6L1 0.2L0.4 0.9L-0.4 0.9L-1 0.2L-0.8 -0.6Z" fill="none" stroke="#151521" stroke-width="3"/></g><g transform="translate(166 49)"><path d="M0 -4L3.1 -2.5L3.9 0.9L1.7 3.6L-1.7 3.6L-3.9 0.9L-3.1 -2.5Z" fill="none" stroke="#151521" stroke-width="3"/></g><g transform="translate(205 52)"><path d="M0 -8L6.3 -5L7.8 1.8L3.5 7.2L-3.5 7.2L-7.8 1.8L-6.3 -5Z" fill="none" stroke="#151521" stroke-width="3"/></g><g transform="translate(520 247)"><path d="M0 -11L8.6 -6.9L10.7 2.4L4.8 9.9L-4.8 9.9L-10.7 2.4L-8.6 -6.9Z" fill="none" stroke="#151521" stroke-width="3"/></g><g transform="translate(175 288)"><path d="M0 -11L8.6 -6.9L10.7 2.4L4.8 9.9L-4.8 9.9L-10.7 2.4L-8.6 -6.9Z" fill="none" stroke="#151521" stroke-width="3"/></g><g transform="translate(591 479)"><path d="M0 -10L7.8 -6.2L9.7 2.2L4.3 9L-4.3 9L-9.7 2.2L-7.8 -6.2Z" fill="none" stroke="#151521" stroke-width="3"/></g><g transform="translate(524 409)"><path d="M0 -2L1.6 -1.2L1.9 0.4L0.9 1.8L-0.9 1.8L-1.9 0.4L-1.6 -1.2Z" fill="none" stroke="#151521" stroke-width="3"/></g><g transform="translate(336 46)"><path d="M0 -2L1.6 -1.2L1.9 0.4L0.9 1.8L-0.9 1.8L-1.9 0.4L-1.6 -1.2Z" fill="none" stroke="#151521" stroke-width="3"/></g><g transform="translate(821 73)"><path d="M0 -7L5.5 -4.4L6.8 1.6L3 6.3L-3 6.3L-6.8 1.6L-5.5 -4.4Z" fill="none" stroke="#151521" stroke-width="3"/></g><g transform="translate(739 458)"><path d="M0 -11L8.6 -6.9L10.7 2.4L4.8 9.9L-4.8 9.9L-10.7 2.4L-8.6 -6.9Z" fill="none" stroke="#151521" stroke-width="3"/></g><g transform="translate(924 336)"><path d="M0 -6L4.7 -3.7L5.8 1.3L2.6 5.4L-2.6 5.4L-5.8 1.3L-4.7 -3.7Z" fill="none" stroke="#151521" stroke-width="3"/></g><g transform="translate(674 374)"><path d="M0 -1L0.8 -0.6L1 0.2L0.4 0.9L-0.4 0.9L-1 0.2L-0.8 -0.6Z" fill="none" stroke="#151521" stroke-width="3"/></g><g transform="translate(861 184)"><path d="M0 -8L6.3 -5L7.8 1.8L3.5 7.2L-3.5 7.2L-7.8 1.8L-6.3 -5Z" fill="none" stroke="#151521" stroke-width="3"/></g><g transform="translate(813 502)"><path d="M0 -11L8.6 -6.9L10.7 2.4L4.8 9.9L-4.8 9.9L-10.7 2.4L-8.6 -6.9Z" fill="none" stroke="#151521" stroke-width="3"/></g><g transform="translate(679 303)"><path d="M0 -1L0.8 -0.6L1 0.2L0.4 0.9L-0.4 0.9L-1 0.2L-0.8 -0.6Z" fill="none" stroke="#151521" stroke-width="3"/></g><g transform="translate(850 76)"><path d="M0 -11L8.6 -6.9L10.7 2.4L4.8 9.9L-4.8 9.9L-10.7 2.4L-8.6 -6.9Z" fill="none" stroke="#151521" stroke-width="3"/></g><g transform="translate(71 238)"><path d="M0 -7L5.5 -4.4L6.8 1.6L3 6.3L-3 6.3L-6.8 1.6L-5.5 -4.4Z" fill="none" stroke="#151521" stroke-width="3"/></g><g transform="translate(257 440)"><path d="M0 -10L7.8 -6.2L9.7 2.2L4.3 9L-4.3 9L-9.7 2.2L-7.8 -6.2Z" fill="none" stroke="#151521" stroke-width="3"/></g><g transform="translate(348 74)"><path d="M0 -10L7.8 -6.2L9.7 2.2L4.3 9L-4.3 9L-9.7 2.2L-7.8 -6.2Z" fill="none" stroke="#151521" stroke-width="3"/></g><g transform="translate(398 370)"><path d="M0 -7L5.5 -4.4L6.8 1.6L3 6.3L-3 6.3L-6.8 1.6L-5.5 -4.4Z" fill="none" stroke="#151521" stroke-width="3"/></g><g transform="translate(40 376)"><path d="M0 -10L7.8 -6.2L9.7 2.2L4.3 9L-4.3 9L-9.7 2.2L-7.8 -6.2Z" fill="none" stroke="#151521" stroke-width="3"/></g><g transform="translate(314 16)"><path d="M0 -11L8.6 -6.9L10.7 2.4L4.8 9.9L-4.8 9.9L-10.7 2.4L-8.6 -6.9Z" fill="none" stroke="#151521" stroke-width="3"/></g><g transform="translate(400 443)"><path d="M0 -1L0.8 -0.6L1 0.2L0.4 0.9L-0.4 0.9L-1 0.2L-0.8 -0.6Z" fill="none" stroke="#151521" stroke-width="3"/></g><g transform="translate(175 473)"><path d="M0 -7L5.5 -4.4L6.8 1.6L3 6.3L-3 6.3L-6.8 1.6L-5.5 -4.4Z" fill="none" stroke="#151521" stroke-width="3"/></g><g transform="translate(203 89)"><path d="M0 -6L4.7 -3.7L5.8 1.3L2.6 5.4L-2.6 5.4L-5.8 1.3L-4.7 -3.7Z" fill="none" stroke="#151521" stroke-width="3"/></g><g transform="translate(560 420)"><path d="M0 -6L4.7 -3.7L5.8 1.3L2.6 5.4L-2.6 5.4L-5.8 1.3L-4.7 -3.7Z" fill="none" stroke="#151521" stroke-width="3"/></g><g transform="translate(374 466)"><path d="M0 -1L0.8 -0.6L1 0.2L0.4 0.9L-0.4 0.9L-1 0.2L-0.8 -0.6Z" fill="none" stroke="#151521" stroke-width="3"/></g><g transform="translate(627 425)"><path d="M0 -3L2.3 -1.9L2.9 0.7L1.3 2.7L-1.3 2.7L-2.9 0.7L-2.3 -1.9Z" fill="none" stroke="#151521" stroke-width="3"/></g><g transform="translate(284 25)"><path d="M0 -5L3.9 -3.1L4.9 1.1L2.2 4.5L-2.2 4.5L-4.9 1.1L-3.9 -3.1Z" fill="none" stroke="#151521" stroke-width="3"/></g><g transform="translate(481 410)"><path d="M0 -7L5.5 -4.4L6.8 1.6L3 6.3L-3 6.3L-6.8 1.6L-5.5 -4.4Z" fill="none" stroke="#151521" stroke-width="3"/></g><g transform="translate(483 211)"><path d="M0 -6L4.7 -3.7L5.8 1.3L2.6 5.4L-2.6 5.4L-5.8 1.3L-4.7 -3.7Z" fill="none" stroke="#151521" stroke-width="3"/></g><g transform="translate(504 278)"><path d="M0 -7L5.5 -4.4L6.8 1.6L3 6.3L-3 6.3L-6.8 1.6L-5.5 -4.4Z" fill="none" stroke="#151521" stroke-width="3"/></g><g transform="translate(132 309)"><path d="M0 -5L3.9 -3.1L4.9 1.1L2.2 4.5L-2.2 4.5L-4.9 1.1L-3.9 -3.1Z" fill="none" stroke="#151521" stroke-width="3"/></g><g transform="translate(715 274)"><path d="M0 -4L3.1 -2.5L3.9 0.9L1.7 3.6L-1.7 3.6L-3.9 0.9L-3.1 -2.5Z" fill="none" stroke="#151521" stroke-width="3"/></g><g transform="translate(470 52)"><path d="M0 -11L8.6 -6.9L10.7 2.4L4.8 9.9L-4.8 9.9L-10.7 2.4L-8.6 -6.9Z" fill="none" stroke="#151521" stroke-width="3"/></g><g transform="translate(308 344)"><path d="M0 -11L8.6 -6.9L10.7 2.4L4.8 9.9L-4.8 9.9L-10.7 2.4L-8.6 -6.9Z" fill="none" stroke="#151521" stroke-width="3"/></g><g transform="translate(65 154)"><path d="M0 -5L3.9 -3.1L4.9 1.1L2.2 4.5L-2.2 4.5L-4.9 1.1L-3.9 -3.1Z" fill="none" stroke="#151521" stroke-width="3"/></g><g transform="translate(380 419)"><path d="M0 -8L6.3 -5L7.8 1.8L3.5 7.2L-3.5 7.2L-7.8 1.8L-6.3 -5Z" fill="none" stroke="#151521" stroke-width="3"/></g><g transform="translate(891 178)"><path d="M0 -3L2.3 -1.9L2.9 0.7L1.3 2.7L-1.3 2.7L-2.9 0.7L-2.3 -1.9Z" fill="none" stroke="#151521" stroke-width="3"/></g><g transform="translate(479 25)"><path d="M0 -9L7 -5.6L8.8 2L3.9 8.1L-3.9 8.1L-8.8 2L-7 -5.6Z" fill="none" stroke="#151521" stroke-width="3"/></g><g transform="translate(477 125)"><path d="M0 -4L3.1 -2.5L3.9 0.9L1.7 3.6L-1.7 3.6L-3.9 0.9L-3.1 -2.5Z" fill="none" stroke="#151521" stroke-width="3"/></g><g transform="translate(213 315)"><path d="M0 -5L3.9 -3.1L4.9 1.1L2.2 4.5L-2.2 4.5L-4.9 1.1L-3.9 -3.1Z" fill="none" stroke="#151521" stroke-width="3"/></g><g transform="translate(305 472)"><path d="M0 -3L2.3 -1.9L2.9 0.7L1.3 2.7L-1.3 2.7L-2.9 0.7L-2.3 -1.9Z" fill="none" stroke="#151521" stroke-width="3"/></g><g transform="translate(432 295)"><path d="M0 -3L2.3 -1.9L2.9 0.7L1.3 2.7L-1.3 2.7L-2.9 0.7L-2.3 -1.9Z" fill="none" stroke="#151521" stroke-width="3"/></g><g transform="translate(420 128)"><path d="M0 -2L1.6 -1.2L1.9 0.4L0.9 1.8L-0.9 1.8L-1.9 0.4L-1.6 -1.2Z" fill="none" stroke="#151521" stroke-width="3"/></g><g transform="translate(602 506)"><path d="M0 -4L3.1 -2.5L3.9 0.9L1.7 3.6L-1.7 3.6L-3.9 0.9L-3.1 -2.5Z" fill="none" stroke="#151521" stroke-width="3"/></g><g transform="translate(924 225)"><path d="M0 -7L5.5 -4.4L6.8 1.6L3 6.3L-3 6.3L-6.8 1.6L-5.5 -4.4Z" fill="none" stroke="#151521" stroke-width="3"/></g><g transform="translate(87 268)"><path d="M0 -5L3.9 -3.1L4.9 1.1L2.2 4.5L-2.2 4.5L-4.9 1.1L-3.9 -3.1Z" fill="none" stroke="#151521" stroke-width="3"/></g><g transform="translate(607 401)"><path d="M0 -6L4.7 -3.7L5.8 1.3L2.6 5.4L-2.6 5.4L-5.8 1.3L-4.7 -3.7Z" fill="none" stroke="#151521" stroke-width="3"/></g><g transform="translate(665 430)"><path d="M0 -3L2.3 -1.9L2.9 0.7L1.3 2.7L-1.3 2.7L-2.9 0.7L-2.3 -1.9Z" fill="none" stroke="#151521" stroke-width="3"/></g><g transform="translate(212 166)"><path d="M0 -3L2.3 -1.9L2.9 0.7L1.3 2.7L-1.3 2.7L-2.9 0.7L-2.3 -1.9Z" fill="none" stroke="#151521" stroke-width="3"/></g><g transform="translate(34 289)"><path d="M0 -11L8.6 -6.9L10.7 2.4L4.8 9.9L-4.8 9.9L-10.7 2.4L-8.6 -6.9Z" fill="none" stroke="#151521" stroke-width="3"/></g><g transform="translate(901 364)"><path d="M0 -6L4.7 -3.7L5.8 1.3L2.6 5.4L-2.6 5.4L-5.8 1.3L-4.7 -3.7Z" fill="none" stroke="#151521" stroke-width="3"/></g><g transform="translate(717 388)"><path d="M0 -4L3.1 -2.5L3.9 0.9L1.7 3.6L-1.7 3.6L-3.9 0.9L-3.1 -2.5Z" fill="none" stroke="#151521" stroke-width="3"/></g><g transform="translate(60 458)"><path d="M0 -11L8.6 -6.9L10.7 2.4L4.8 9.9L-4.8 9.9L-10.7 2.4L-8.6 -6.9Z" fill="none" stroke="#151521" stroke-width="3"/></g><g transform="translate(81 302)"><path d="M0 -8L6.3 -5L7.8 1.8L3.5 7.2L-3.5 7.2L-7.8 1.8L-6.3 -5Z" fill="none" stroke="#151521" stroke-width="3"/></g><g transform="translate(288 210)"><path d="M0 -11L8.6 -6.9L10.7 2.4L4.8 9.9L-4.8 9.9L-10.7 2.4L-8.6 -6.9Z" fill="none" stroke="#151521" stroke-width="3"/></g><g transform="translate(111 412)"><path d="M0 -11L8.6 -6.9L10.7 2.4L4.8 9.9L-4.8 9.9L-10.7 2.4L-8.6 -6.9Z" fill="none" stroke="#151521" stroke-width="3"/></g><g transform="translate(601 254)"><path d="M0 -10L7.8 -6.2L9.7 2.2L4.3 9L-4.3 9L-9.7 2.2L-7.8 -6.2Z" fill="none" stroke="#151521" stroke-width="3"/></g><g transform="translate(763 281)"><path d="M0 -1L0.8 -0.6L1 0.2L0.4 0.9L-0.4 0.9L-1 0.2L-0.8 -0.6Z" fill="none" stroke="#151521" stroke-width="3"/></g><g transform="translate(246 78)"><path d="M0 -7L5.5 -4.4L6.8 1.6L3 6.3L-3 6.3L-6.8 1.6L-5.5 -4.4Z" fill="none" stroke="#151521" stroke-width="3"/></g><g transform="translate(850 341)"><path d="M0 -10L7.8 -6.2L9.7 2.2L4.3 9L-4.3 9L-9.7 2.2L-7.8 -6.2Z" fill="none" stroke="#151521" stroke-width="3"/></g><g transform="translate(114 382)"><path d="M0 -3L2.3 -1.9L2.9 0.7L1.3 2.7L-1.3 2.7L-2.9 0.7L-2.3 -1.9Z" fill="none" stroke="#151521" stroke-width="3"/></g><g transform="translate(514 470)"><path d="M0 -10L7.8 -6.2L9.7 2.2L4.3 9L-4.3 9L-9.7 2.2L-7.8 -6.2Z" fill="none" stroke="#151521" stroke-width="3"/></g><g transform="translate(904 419)"><path d="M0 -9L7 -5.6L8.8 2L3.9 8.1L-3.9 8.1L-8.8 2L-7 -5.6Z" fill="none" stroke="#151521" stroke-width="3"/></g><g transform="translate(148 423)"><path d="M0 -7L5.5 -4.4L6.8 1.6L3 6.3L-3 6.3L-6.8 1.6L-5.5 -4.4Z" fill="none" stroke="#151521" stroke-width="3"/></g><g transform="translate(157 91)"><path d="M0 -10L7.8 -6.2L9.7 2.2L4.3 9L-4.3 9L-9.7 2.2L-7.8 -6.2Z" fill="none" stroke="#151521" stroke-width="3"/></g><g transform="translate(416 348)"><path d="M0 -11L8.6 -6.9L10.7 2.4L4.8 9.9L-4.8 9.9L-10.7 2.4L-8.6 -6.9Z" fill="none" stroke="#151521" stroke-width="3"/></g><g transform="translate(235 263)"><path d="M0 -9L7 -5.6L8.8 2L3.9 8.1L-3.9 8.1L-8.8 2L-7 -5.6Z" fill="none" stroke="#151521" stroke-width="3"/></g><g transform="translate(375 211)"><path d="M0 -8L6.3 -5L7.8 1.8L3.5 7.2L-3.5 7.2L-7.8 1.8L-6.3 -5Z" fill="none" stroke="#151521" stroke-width="3"/></g><g transform="translate(413 515)"><path d="M0 -9L7 -5.6L8.8 2L3.9 8.1L-3.9 8.1L-8.8 2L-7 -5.6Z" fill="none" stroke="#151521" stroke-width="3"/></g><g transform="translate(545 70)"><path d="M0 -4L3.1 -2.5L3.9 0.9L1.7 3.6L-1.7 3.6L-3.9 0.9L-3.1 -2.5Z" fill="none" stroke="#151521" stroke-width="3"/></g><g transform="translate(876 511)"><path d="M0 -2L1.6 -1.2L1.9 0.4L0.9 1.8L-0.9 1.8L-1.9 0.4L-1.6 -1.2Z" fill="none" stroke="#151521" stroke-width="3"/></g><g transform="translate(781 114)"><path d="M0 -5L3.9 -3.1L4.9 1.1L2.2 4.5L-2.2 4.5L-4.9 1.1L-3.9 -3.1Z" fill="none" stroke="#151521" stroke-width="3"/></g><g transform="translate(76 401)"><path d="M0 -11L8.6 -6.9L10.7 2.4L4.8 9.9L-4.8 9.9L-10.7 2.4L-8.6 -6.9Z" fill="none" stroke="#151521" stroke-width="3"/></g><g transform="translate(236 344)"><path d="M0 -3L2.3 -1.9L2.9 0.7L1.3 2.7L-1.3 2.7L-2.9 0.7L-2.3 -1.9Z" fill="none" stroke="#151521" stroke-width="3"/></g><g transform="translate(122 73)"><path d="M0 -11L8.6 -6.9L10.7 2.4L4.8 9.9L-4.8 9.9L-10.7 2.4L-8.6 -6.9Z" fill="none" stroke="#151521" stroke-width="3"/></g><g transform="translate(460 337)"><path d="M0 -5L3.9 -3.1L4.9 1.1L2.2 4.5L-2.2 4.5L-4.9 1.1L-3.9 -3.1Z" fill="none" stroke="#151521" stroke-width="3"/></g><g transform="translate(483 351)"><path d="M0 -8L6.3 -5L7.8 1.8L3.5 7.2L-3.5 7.2L-7.8 1.8L-6.3 -5Z" fill="none" stroke="#151521" stroke-width="3"/></g><g transform="translate(337 302)"><path d="M0 -2L1.6 -1.2L1.9 0.4L0.9 1.8L-0.9 1.8L-1.9 0.4L-1.6 -1.2Z" fill="none" stroke="#151521" stroke-width="3"/></g><g transform="translate(38 201)"><path d="M0 -5L3.9 -3.1L4.9 1.1L2.2 4.5L-2.2 4.5L-4.9 1.1L-3.9 -3.1Z" fill="none" stroke="#151521" stroke-width="3"/></g><g transform="translate(41 407)"><path d="M0 -1L0.8 -0.6L1 0.2L0.4 0.9L-0.4 0.9L-1 0.2L-0.8 -0.6Z" fill="none" stroke="#151521" stroke-width="3"/></g><g transform="translate(677 346)"><path d="M0 -5L3.9 -3.1L4.9 1.1L2.2 4.5L-2.2 4.5L-4.9 1.1L-3.9 -3.1Z" fill="none" stroke="#151521" stroke-width="3"/></g><g transform="translate(831 28)"><path d="M0 -10L7.8 -6.2L9.7 2.2L4.3 9L-4.3 9L-9.7 2.2L-7.8 -6.2Z" fill="none" stroke="#151521" stroke-width="3"/></g><g transform="translate(797 252)"><path d="M0 -4L3.1 -2.5L3.9 0.9L1.7 3.6L-1.7 3.6L-3.9 0.9L-3.1 -2.5Z" fill="none" stroke="#151521" stroke-width="3"/></g><g transform="translate(161 160)"><path d="M0 -11L8.6 -6.9L10.7 2.4L4.8 9.9L-4.8 9.9L-10.7 2.4L-8.6 -6.9Z" fill="none" stroke="#151521" stroke-width="3"/></g><g transform="translate(209 260)"><path d="M0 -2L1.6 -1.2L1.9 0.4L0.9 1.8L-0.9 1.8L-1.9 0.4L-1.6 -1.2Z" fill="none" stroke="#151521" stroke-width="3"/></g><g transform="translate(682 153)"><path d="M0 -2L1.6 -1.2L1.9 0.4L0.9 1.8L-0.9 1.8L-1.9 0.4L-1.6 -1.2Z" fill="none" stroke="#151521" stroke-width="3"/></g><g transform="translate(886 52)"><path d="M0 -7L5.5 -4.4L6.8 1.6L3 6.3L-3 6.3L-6.8 1.6L-5.5 -4.4Z" fill="none" stroke="#151521" stroke-width="3"/></g><g transform="translate(304 73)"><path d="M0 -6L4.7 -3.7L5.8 1.3L2.6 5.4L-2.6 5.4L-5.8 1.3L-4.7 -3.7Z" fill="none" stroke="#151521" stroke-width="3"/></g><g transform="translate(607 55)"><path d="M0 -1L0.8 -0.6L1 0.2L0.4 0.9L-0.4 0.9L-1 0.2L-0.8 -0.6Z" fill="none" stroke="#151521" stroke-width="3"/></g><g transform="translate(149 386)"><path d="M0 -2L1.6 -1.2L1.9 0.4L0.9 1.8L-0.9 1.8L-1.9 0.4L-1.6 -1.2Z" fill="none" stroke="#151521" stroke-width="3"/></g><g transform="translate(573 205)"><path d="M0 -10L7.8 -6.2L9.7 2.2L4.3 9L-4.3 9L-9.7 2.2L-7.8 -6.2Z" fill="none" stroke="#151521" stroke-width="3"/></g><g transform="translate(635 305)"><path d="M0 -9L7 -5.6L8.8 2L3.9 8.1L-3.9 8.1L-8.8 2L-7 -5.6Z" fill="none" stroke="#151521" stroke-width="3"/></g><g transform="translate(442 155)"><path d="M0 -10L7.8 -6.2L9.7 2.2L4.3 9L-4.3 9L-9.7 2.2L-7.8 -6.2Z" fill="none" stroke="#151521" stroke-width="3"/></g><g transform="translate(788 60)"><path d="M0 -4L3.1 -2.5L3.9 0.9L1.7 3.6L-1.7 3.6L-3.9 0.9L-3.1 -2.5Z" fill="none" stroke="#151521" stroke-width="3"/></g><g transform="translate(490 153)"><path d="M0 -11L8.6 -6.9L10.7 2.4L4.8 9.9L-4.8 9.9L-10.7 2.4L-8.6 -6.9Z" fill="none" stroke="#151521" stroke-width="3"/></g><g transform="translate(136 17)"><path d="M0 -2L1.6 -1.2L1.9 0.4L0.9 1.8L-0.9 1.8L-1.9 0.4L-1.6 -1.2Z" fill="none" stroke="#151521" stroke-width="3"/></g><g transform="translate(252 124)"><path d="M0 -1L0.8 -0.6L1 0.2L0.4 0.9L-0.4 0.9L-1 0.2L-0.8 -0.6Z" fill="none" stroke="#151521" stroke-width="3"/></g><g transform="translate(309 143)"><path d="M0 -5L3.9 -3.1L4.9 1.1L2.2 4.5L-2.2 4.5L-4.9 1.1L-3.9 -3.1Z" fill="none" stroke="#151521" stroke-width="3"/></g><g transform="translate(651 277)"><path d="M0 -1L0.8 -0.6L1 0.2L0.4 0.9L-0.4 0.9L-1 0.2L-0.8 -0.6Z" fill="none" stroke="#151521" stroke-width="3"/></g><g transform="translate(866 281)"><path d="M0 -4L3.1 -2.5L3.9 0.9L1.7 3.6L-1.7 3.6L-3.9 0.9L-3.1 -2.5Z" fill="none" stroke="#151521" stroke-width="3"/></g><g transform="translate(702 495)"><path d="M0 -4L3.1 -2.5L3.9 0.9L1.7 3.6L-1.7 3.6L-3.9 0.9L-3.1 -2.5Z" fill="none" stroke="#151521" stroke-width="3"/></g><g transform="translate(148 198)"><path d="M0 -7L5.5 -4.4L6.8 1.6L3 6.3L-3 6.3L-6.8 1.6L-5.5 -4.4Z" fill="none" stroke="#151521" stroke-width="3"/></g><g transform="translate(932 64)"><path d="M0 -10L7.8 -6.2L9.7 2.2L4.3 9L-4.3 9L-9.7 2.2L-7.8 -6.2Z" fill="none" stroke="#151521" stroke-width="3"/></g><g transform="translate(45 509)"><path d="M0 -9L7 -5.6L8.8 2L3.9 8.1L-3.9 8.1L-8.8 2L-7 -5.6Z" fill="none" stroke="#151521" stroke-width="3"/></g><g transform="translate(732 226)"><path d="M0 -2L1.6 -1.2L1.9 0.4L0.9 1.8L-0.9 1.8L-1.9 0.4L-1.6 -1.2Z" fill="none" stroke="#151521" stroke-width="3"/></g><g transform="translate(941 523)"><path d="M0 -2L1.6 -1.2L1.9 0.4L0.9 1.8L-0.9 1.8L-1.9 0.4L-1.6 -1.2Z" fill="none" stroke="#151521" stroke-width="3"/></g><g transform="translate(436 75)"><path d="M0 -5L3.9 -3.1L4.9 1.1L2.2 4.5L-2.2 4.5L-4.9 1.1L-3.9 -3.1Z" fill="none" stroke="#151521" stroke-width="3"/></g><g transform="translate(410 258)"><path d="M0 -8L6.3 -5L7.8 1.8L3.5 7.2L-3.5 7.2L-7.8 1.8L-6.3 -5Z" fill="none" stroke="#151521" stroke-width="3"/></g><g transform="translate(554 269)"><path d="M0 -1L0.8 -0.6L1 0.2L0.4 0.9L-0.4 0.9L-1 0.2L-0.8 -0.6Z" fill="none" stroke="#151521" stroke-width="3"/></g><g transform="translate(529 111)"><path d="M0 -5L3.9 -3.1L4.9 1.1L2.2 4.5L-2.2 4.5L-4.9 1.1L-3.9 -3.1Z" fill="none" stroke="#151521" stroke-width="3"/></g><g transform="translate(374 130)"><path d="M0 -8L6.3 -5L7.8 1.8L3.5 7.2L-3.5 7.2L-7.8 1.8L-6.3 -5Z" fill="none" stroke="#151521" stroke-width="3"/></g><g transform="translate(839 448)"><path d="M0 -5L3.9 -3.1L4.9 1.1L2.2 4.5L-2.2 4.5L-4.9 1.1L-3.9 -3.1Z" fill="none" stroke="#151521" stroke-width="3"/></g><g transform="translate(321 513)"><path d="M0 -2L1.6 -1.2L1.9 0.4L0.9 1.8L-0.9 1.8L-1.9 0.4L-1.6 -1.2Z" fill="none" stroke="#151521" stroke-width="3"/></g><g transform="translate(236 185)"><path d="M0 -2L1.6 -1.2L1.9 0.4L0.9 1.8L-0.9 1.8L-1.9 0.4L-1.6 -1.2Z" fill="none" stroke="#151521" stroke-width="3"/></g><g transform="translate(804 100)"><path d="M0 -11L8.6 -6.9L10.7 2.4L4.8 9.9L-4.8 9.9L-10.7 2.4L-8.6 -6.9Z" fill="none" stroke="#151521" stroke-width="3"/></g><g transform="translate(116 221)"><path d="M0 -2L1.6 -1.2L1.9 0.4L0.9 1.8L-0.9 1.8L-1.9 0.4L-1.6 -1.2Z" fill="none" stroke="#151521" stroke-width="3"/></g><g transform="translate(938 470)"><path d="M0 -1L0.8 -0.6L1 0.2L0.4 0.9L-0.4 0.9L-1 0.2L-0.8 -0.6Z" fill="none" stroke="#151521" stroke-width="3"/></g><g transform="translate(761 190)"><path d="M0 -9L7 -5.6L8.8 2L3.9 8.1L-3.9 8.1L-8.8 2L-7 -5.6Z" fill="none" stroke="#151521" stroke-width="3"/></g><g transform="translate(503 106)"><path d="M0 -8L6.3 -5L7.8 1.8L3.5 7.2L-3.5 7.2L-7.8 1.8L-6.3 -5Z" fill="none" stroke="#151521" stroke-width="3"/></g><g transform="translate(844 378)"><path d="M0 -2L1.6 -1.2L1.9 0.4L0.9 1.8L-0.9 1.8L-1.9 0.4L-1.6 -1.2Z" fill="none" stroke="#151521" stroke-width="3"/></g><g transform="translate(251 406)"><path d="M0 -9L7 -5.6L8.8 2L3.9 8.1L-3.9 8.1L-8.8 2L-7 -5.6Z" fill="none" stroke="#151521" stroke-width="3"/></g><g transform="translate(402 296)"><path d="M0 -6L4.7 -3.7L5.8 1.3L2.6 5.4L-2.6 5.4L-5.8 1.3L-4.7 -3.7Z" fill="none" stroke="#151521" stroke-width="3"/></g><g transform="translate(123 474)"><path d="M0 -10L7.8 -6.2L9.7 2.2L4.3 9L-4.3 9L-9.7 2.2L-7.8 -6.2Z" fill="none" stroke="#151521" stroke-width="3"/></g><g transform="translate(511 136)"><path d="M0 -8L6.3 -5L7.8 1.8L3.5 7.2L-3.5 7.2L-7.8 1.8L-6.3 -5Z" fill="none" stroke="#151521" stroke-width="3"/></g><g transform="translate(658 247)"><path d="M0 -11L8.6 -6.9L10.7 2.4L4.8 9.9L-4.8 9.9L-10.7 2.4L-8.6 -6.9Z" fill="none" stroke="#151521" stroke-width="3"/></g><g transform="translate(521 307)"><path d="M0 -1L0.8 -0.6L1 0.2L0.4 0.9L-0.4 0.9L-1 0.2L-0.8 -0.6Z" fill="none" stroke="#151521" stroke-width="3"/></g><g transform="translate(911 394)"><path d="M0 -6L4.7 -3.7L5.8 1.3L2.6 5.4L-2.6 5.4L-5.8 1.3L-4.7 -3.7Z" fill="none" stroke="#151521" stroke-width="3"/></g><g transform="translate(715 338)"><path d="M0 -1L0.8 -0.6L1 0.2L0.4 0.9L-0.4 0.9L-1 0.2L-0.8 -0.6Z" fill="none" stroke="#151521" stroke-width="3"/></g><g transform="translate(839 290)"><path d="M0 -8L6.3 -5L7.8 1.8L3.5 7.2L-3.5 7.2L-7.8 1.8L-6.3 -5Z" fill="none" stroke="#151521" stroke-width="3"/></g><g transform="translate(91 45)"><path d="M0 -11L8.6 -6.9L10.7 2.4L4.8 9.9L-4.8 9.9L-10.7 2.4L-8.6 -6.9Z" fill="none" stroke="#151521" stroke-width="3"/></g><g transform="translate(183 356)"><path d="M0 -3L2.3 -1.9L2.9 0.7L1.3 2.7L-1.3 2.7L-2.9 0.7L-2.3 -1.9Z" fill="none" stroke="#151521" stroke-width="3"/></g><g transform="translate(45 316)"><path d="M0 -4L3.1 -2.5L3.9 0.9L1.7 3.6L-1.7 3.6L-3.9 0.9L-3.1 -2.5Z" fill="none" stroke="#151521" stroke-width="3"/></g><g transform="translate(664 194)"><path d="M0 -8L6.3 -5L7.8 1.8L3.5 7.2L-3.5 7.2L-7.8 1.8L-6.3 -5Z" fill="none" stroke="#151521" stroke-width="3"/></g><g transform="translate(281 298)"><path d="M0 -8L6.3 -5L7.8 1.8L3.5 7.2L-3.5 7.2L-7.8 1.8L-6.3 -5Z" fill="none" stroke="#151521" stroke-width="3"/></g><g transform="translate(860 113)"><path d="M0 -5L3.9 -3.1L4.9 1.1L2.2 4.5L-2.2 4.5L-4.9 1.1L-3.9 -3.1Z" fill="none" stroke="#151521" stroke-width="3"/></g><g transform="translate(110 128)"><path d="M0 -7L5.5 -4.4L6.8 1.6L3 6.3L-3 6.3L-6.8 1.6L-5.5 -4.4Z" fill="none" stroke="#151521" stroke-width="3"/></g><g transform="translate(27 258)"><path d="M0 -4L3.1 -2.5L3.9 0.9L1.7 3.6L-1.7 3.6L-3.9 0.9L-3.1 -2.5Z" fill="none" stroke="#151521" stroke-width="3"/></g><g transform="translate(138 248)"><path d="M0 -8L6.3 -5L7.8 1.8L3.5 7.2L-3.5 7.2L-7.8 1.8L-6.3 -5Z" fill="none" stroke="#151521" stroke-width="3"/></g><g transform="translate(628 241)"><path d="M0 -3L2.3 -1.9L2.9 0.7L1.3 2.7L-1.3 2.7L-2.9 0.7L-2.3 -1.9Z" fill="none" stroke="#151521" stroke-width="3"/></g><g transform="translate(921 160)"><path d="M0 -4L3.1 -2.5L3.9 0.9L1.7 3.6L-1.7 3.6L-3.9 0.9L-3.1 -2.5Z" fill="none" stroke="#151521" stroke-width="3"/></g><g transform="translate(105 333)"><path d="M0 -9L7 -5.6L8.8 2L3.9 8.1L-3.9 8.1L-8.8 2L-7 -5.6Z" fill="none" stroke="#151521" stroke-width="3"/></g><g transform="translate(890 327)"><path d="M0 -9L7 -5.6L8.8 2L3.9 8.1L-3.9 8.1L-8.8 2L-7 -5.6Z" fill="none" stroke="#151521" stroke-width="3"/></g><g transform="translate(532 18)"><path d="M0 -8L6.3 -5L7.8 1.8L3.5 7.2L-3.5 7.2L-7.8 1.8L-6.3 -5Z" fill="none" stroke="#151521" stroke-width="3"/></g><g transform="translate(473 177)"><path d="M0 -7L5.5 -4.4L6.8 1.6L3 6.3L-3 6.3L-6.8 1.6L-5.5 -4.4Z" fill="none" stroke="#151521" stroke-width="3"/></g><g transform="translate(20 176)"><path d="M0 -1L0.8 -0.6L1 0.2L0.4 0.9L-0.4 0.9L-1 0.2L-0.8 -0.6Z" fill="none" stroke="#151521" stroke-width="3"/></g><g transform="translate(15 90)"><path d="M0 -6L4.7 -3.7L5.8 1.3L2.6 5.4L-2.6 5.4L-5.8 1.3L-4.7 -3.7Z" fill="none" stroke="#151521" stroke-width="3"/></g><g transform="translate(700 245)"><path d="M0 -7L5.5 -4.4L6.8 1.6L3 6.3L-3 6.3L-6.8 1.6L-5.5 -4.4Z" fill="none" stroke="#151521" stroke-width="3"/></g><g transform="translate(430 46)"><path d="M0 -7L5.5 -4.4L6.8 1.6L3 6.3L-3 6.3L-6.8 1.6L-5.5 -4.4Z" fill="none" stroke="#151521" stroke-width="3"/></g><g transform="translate(312 266)"><path d="M0 -3L2.3 -1.9L2.9 0.7L1.3 2.7L-1.3 2.7L-2.9 0.7L-2.3 -1.9Z" fill="none" stroke="#151521" stroke-width="3"/></g><g transform="translate(290 416)"><path d="M0 -8L6.3 -5L7.8 1.8L3.5 7.2L-3.5 7.2L-7.8 1.8L-6.3 -5Z" fill="none" stroke="#151521" stroke-width="3"/></g><g transform="translate(633 96)"><path d="M0 -2L1.6 -1.2L1.9 0.4L0.9 1.8L-0.9 1.8L-1.9 0.4L-1.6 -1.2Z" fill="none" stroke="#151521" stroke-width="3"/></g><g transform="translate(786 344)"><path d="M0 -2L1.6 -1.2L1.9 0.4L0.9 1.8L-0.9 1.8L-1.9 0.4L-1.6 -1.2Z" fill="none" stroke="#151521" stroke-width="3"/></g><g transform="translate(99 499)"><path d="M0 -8L6.3 -5L7.8 1.8L3.5 7.2L-3.5 7.2L-7.8 1.8L-6.3 -5Z" fill="none" stroke="#151521" stroke-width="3"/></g><g transform="translate(468 270)"><path d="M0 -10L7.8 -6.2L9.7 2.2L4.3 9L-4.3 9L-9.7 2.2L-7.8 -6.2Z" fill="none" stroke="#151521" stroke-width="3"/></g><g transform="translate(287 498)"><path d="M0 -10L7.8 -6.2L9.7 2.2L4.3 9L-4.3 9L-9.7 2.2L-7.8 -6.2Z" fill="none" stroke="#151521" stroke-width="3"/></g><g transform="translate(237 229)"><path d="M0 -4L3.1 -2.5L3.9 0.9L1.7 3.6L-1.7 3.6L-3.9 0.9L-3.1 -2.5Z" fill="none" stroke="#151521" stroke-width="3"/></g><g transform="translate(892 278)"><path d="M0 -9L7 -5.6L8.8 2L3.9 8.1L-3.9 8.1L-8.8 2L-7 -5.6Z" fill="none" stroke="#151521" stroke-width="3"/></g><g transform="translate(71 370)"><path d="M0 -9L7 -5.6L8.8 2L3.9 8.1L-3.9 8.1L-8.8 2L-7 -5.6Z" fill="none" stroke="#151521" stroke-width="3"/></g><g transform="translate(435 247)"><path d="M0 -9L7 -5.6L8.8 2L3.9 8.1L-3.9 8.1L-8.8 2L-7 -5.6Z" fill="none" stroke="#151521" stroke-width="3"/></g><g transform="translate(212 360)"><path d="M0 -9L7 -5.6L8.8 2L3.9 8.1L-3.9 8.1L-8.8 2L-7 -5.6Z" fill="none" stroke="#151521" stroke-width="3"/></g><g transform="translate(320 172)"><path d="M0 -3L2.3 -1.9L2.9 0.7L1.3 2.7L-1.3 2.7L-2.9 0.7L-2.3 -1.9Z" fill="none" stroke="#151521" stroke-width="3"/></g><g transform="translate(553 446)"><path d="M0 -6L4.7 -3.7L5.8 1.3L2.6 5.4L-2.6 5.4L-5.8 1.3L-4.7 -3.7Z" fill="none" stroke="#151521" stroke-width="3"/></g><g transform="translate(871 148)"><path d="M0 -7L5.5 -4.4L6.8 1.6L3 6.3L-3 6.3L-6.8 1.6L-5.5 -4.4Z" fill="none" stroke="#151521" stroke-width="3"/></g><g transform="translate(725 33)"><path d="M0 -1L0.8 -0.6L1 0.2L0.4 0.9L-0.4 0.9L-1 0.2L-0.8 -0.6Z" fill="none" stroke="#151521" stroke-width="3"/></g><g transform="translate(541 174)"><path d="M0 -6L4.7 -3.7L5.8 1.3L2.6 5.4L-2.6 5.4L-5.8 1.3L-4.7 -3.7Z" fill="none" stroke="#151521" stroke-width="3"/></g><g transform="translate(505 198)"><path d="M0 -4L3.1 -2.5L3.9 0.9L1.7 3.6L-1.7 3.6L-3.9 0.9L-3.1 -2.5Z" fill="none" stroke="#151521" stroke-width="3"/></g><g transform="translate(832 188)"><path d="M0 -6L4.7 -3.7L5.8 1.3L2.6 5.4L-2.6 5.4L-5.8 1.3L-4.7 -3.7Z" fill="none" stroke="#151521" stroke-width="3"/></g><g transform="translate(621 211)"><path d="M0 -11L8.6 -6.9L10.7 2.4L4.8 9.9L-4.8 9.9L-10.7 2.4L-8.6 -6.9Z" fill="none" stroke="#151521" stroke-width="3"/></g><g transform="translate(791 459)"><path d="M0 -3L2.3 -1.9L2.9 0.7L1.3 2.7L-1.3 2.7L-2.9 0.7L-2.3 -1.9Z" fill="none" stroke="#151521" stroke-width="3"/></g><g transform="translate(912 456)"><path d="M0 -3L2.3 -1.9L2.9 0.7L1.3 2.7L-1.3 2.7L-2.9 0.7L-2.3 -1.9Z" fill="none" stroke="#151521" stroke-width="3"/></g><g transform="translate(776 169)"><path d="M0 -5L3.9 -3.1L4.9 1.1L2.2 4.5L-2.2 4.5L-4.9 1.1L-3.9 -3.1Z" fill="none" stroke="#151521" stroke-width="3"/></g><g transform="translate(250 509)"><path d="M0 -6L4.7 -3.7L5.8 1.3L2.6 5.4L-2.6 5.4L-5.8 1.3L-4.7 -3.7Z" fill="none" stroke="#151521" stroke-width="3"/></g><g transform="translate(454 368)"><path d="M0 -5L3.9 -3.1L4.9 1.1L2.2 4.5L-2.2 4.5L-4.9 1.1L-3.9 -3.1Z" fill="none" stroke="#151521" stroke-width="3"/></g><g transform="translate(190 439)"><path d="M0 -11L8.6 -6.9L10.7 2.4L4.8 9.9L-4.8 9.9L-10.7 2.4L-8.6 -6.9Z" fill="none" stroke="#151521" stroke-width="3"/></g><g transform="translate(334 349)"><path d="M0 -11L8.6 -6.9L10.7 2.4L4.8 9.9L-4.8 9.9L-10.7 2.4L-8.6 -6.9Z" fill="none" stroke="#151521" stroke-width="3"/></g><g transform="translate(276 391)"><path d="M0 -9L7 -5.6L8.8 2L3.9 8.1L-3.9 8.1L-8.8 2L-7 -5.6Z" fill="none" stroke="#151521" stroke-width="3"/></g><g transform="translate(799 156)"><path d="M0 -6L4.7 -3.7L5.8 1.3L2.6 5.4L-2.6 5.4L-5.8 1.3L-4.7 -3.7Z" fill="none" stroke="#151521" stroke-width="3"/></g><g transform="translate(945 199)"><path d="M0 -6L4.7 -3.7L5.8 1.3L2.6 5.4L-2.6 5.4L-5.8 1.3L-4.7 -3.7Z" fill="none" stroke="#151521" stroke-width="3"/></g><g transform="translate(139 145)"><path d="M0 -1L0.8 -0.6L1 0.2L0.4 0.9L-0.4 0.9L-1 0.2L-0.8 -0.6Z" fill="none" stroke="#151521" stroke-width="3"/></g><g transform="translate(700 106)"><path d="M0 -1L0.8 -0.6L1 0.2L0.4 0.9L-0.4 0.9L-1 0.2L-0.8 -0.6Z" fill="none" stroke="#151521" stroke-width="3"/></g><g transform="translate(555 302)"><path d="M0 -5L3.9 -3.1L4.9 1.1L2.2 4.5L-2.2 4.5L-4.9 1.1L-3.9 -3.1Z" fill="none" stroke="#151521" stroke-width="3"/></g><g transform="translate(537 338)"><path d="M0 -7L5.5 -4.4L6.8 1.6L3 6.3L-3 6.3L-6.8 1.6L-5.5 -4.4Z" fill="none" stroke="#151521" stroke-width="3"/></g><g transform="translate(427 392)"><path d="M0 -11L8.6 -6.9L10.7 2.4L4.8 9.9L-4.8 9.9L-10.7 2.4L-8.6 -6.9Z" fill="none" stroke="#151521" stroke-width="3"/></g><g transform="translate(653 55)"><path d="M0 -10L7.8 -6.2L9.7 2.2L4.3 9L-4.3 9L-9.7 2.2L-7.8 -6.2Z" fill="none" stroke="#151521" stroke-width="3"/></g><g transform="translate(850 474)"><path d="M0 -1L0.8 -0.6L1 0.2L0.4 0.9L-0.4 0.9L-1 0.2L-0.8 -0.6Z" fill="none" stroke="#151521" stroke-width="3"/></g><g transform="translate(410 89)"><path d="M0 -2L1.6 -1.2L1.9 0.4L0.9 1.8L-0.9 1.8L-1.9 0.4L-1.6 -1.2Z" fill="none" stroke="#151521" stroke-width="3"/></g><g transform="translate(13 230)"><path d="M0 -10L7.8 -6.2L9.7 2.2L4.3 9L-4.3 9L-9.7 2.2L-7.8 -6.2Z" fill="none" stroke="#151521" stroke-width="3"/></g><g transform="translate(95 435)"><path d="M0 -8L6.3 -5L7.8 1.8L3.5 7.2L-3.5 7.2L-7.8 1.8L-6.3 -5Z" fill="none" stroke="#151521" stroke-width="3"/></g><g transform="translate(219 502)"><path d="M0 -5L3.9 -3.1L4.9 1.1L2.2 4.5L-2.2 4.5L-4.9 1.1L-3.9 -3.1Z" fill="none" stroke="#151521" stroke-width="3"/></g><g transform="translate(227 16)"><path d="M0 -3L2.3 -1.9L2.9 0.7L1.3 2.7L-1.3 2.7L-2.9 0.7L-2.3 -1.9Z" fill="none" stroke="#151521" stroke-width="3"/></g><g transform="translate(617 452)"><path d="M0 -9L7 -5.6L8.8 2L3.9 8.1L-3.9 8.1L-8.8 2L-7 -5.6Z" fill="none" stroke="#151521" stroke-width="3"/></g><g transform="translate(730 185)"><path d="M0 -4L3.1 -2.5L3.9 0.9L1.7 3.6L-1.7 3.6L-3.9 0.9L-3.1 -2.5Z" fill="none" stroke="#151521" stroke-width="3"/></g><g transform="translate(641 330)"><path d="M0 -4L3.1 -2.5L3.9 0.9L1.7 3.6L-1.7 3.6L-3.9 0.9L-3.1 -2.5Z" fill="none" stroke="#151521" stroke-width="3"/></g><g transform="translate(244 47)"><path d="M0 -6L4.7 -3.7L5.8 1.3L2.6 5.4L-2.6 5.4L-5.8 1.3L-4.7 -3.7Z" fill="none" stroke="#151521" stroke-width="3"/></g><g transform="translate(725 311)"><path d="M0 -1L0.8 -0.6L1 0.2L0.4 0.9L-0.4 0.9L-1 0.2L-0.8 -0.6Z" fill="none" stroke="#151521" stroke-width="3"/></g><g transform="translate(813 210)"><path d="M0 -3L2.3 -1.9L2.9 0.7L1.3 2.7L-1.3 2.7L-2.9 0.7L-2.3 -1.9Z" fill="none" stroke="#151521" stroke-width="3"/></g><g transform="translate(322 435)"><path d="M0 -1L0.8 -0.6L1 0.2L0.4 0.9L-0.4 0.9L-1 0.2L-0.8 -0.6Z" fill="none" stroke="#151521" stroke-width="3"/></g><g transform="translate(129 345)"><path d="M0 -4L3.1 -2.5L3.9 0.9L1.7 3.6L-1.7 3.6L-3.9 0.9L-3.1 -2.5Z" fill="none" stroke="#151521" stroke-width="3"/></g><g transform="translate(111 292)"><path d="M0 -3L2.3 -1.9L2.9 0.7L1.3 2.7L-1.3 2.7L-2.9 0.7L-2.3 -1.9Z" fill="none" stroke="#151521" stroke-width="3"/></g><g transform="translate(363 236)"><path d="M0 -9L7 -5.6L8.8 2L3.9 8.1L-3.9 8.1L-8.8 2L-7 -5.6Z" fill="none" stroke="#151521" stroke-width="3"/></g><g transform="translate(604 301)"><path d="M0 -9L7 -5.6L8.8 2L3.9 8.1L-3.9 8.1L-8.8 2L-7 -5.6Z" fill="none" stroke="#151521" stroke-width="3"/></g><g transform="translate(269 230)"><path d="M0 -3L2.3 -1.9L2.9 0.7L1.3 2.7L-1.3 2.7L-2.9 0.7L-2.3 -1.9Z" fill="none" stroke="#151521" stroke-width="3"/></g><g transform="translate(831 155)"><path d="M0 -11L8.6 -6.9L10.7 2.4L4.8 9.9L-4.8 9.9L-10.7 2.4L-8.6 -6.9Z" fill="none" stroke="#151521" stroke-width="3"/></g><g transform="translate(233 149)"><path d="M0 -10L7.8 -6.2L9.7 2.2L4.3 9L-4.3 9L-9.7 2.2L-7.8 -6.2Z" fill="none" stroke="#151521" stroke-width="3"/></g><g transform="translate(255 477)"><path d="M0 -7L5.5 -4.4L6.8 1.6L3 6.3L-3 6.3L-6.8 1.6L-5.5 -4.4Z" fill="none" stroke="#151521" stroke-width="3"/></g><g transform="translate(878 449)"><path d="M0 -6L4.7 -3.7L5.8 1.3L2.6 5.4L-2.6 5.4L-5.8 1.3L-4.7 -3.7Z" fill="none" stroke="#151521" stroke-width="3"/></g><g transform="translate(446 184)"><path d="M0 -7L5.5 -4.4L6.8 1.6L3 6.3L-3 6.3L-6.8 1.6L-5.5 -4.4Z" fill="none" stroke="#151521" stroke-width="3"/></g><g transform="translate(598 150)"><path d="M0 -1L0.8 -0.6L1 0.2L0.4 0.9L-0.4 0.9L-1 0.2L-0.8 -0.6Z" fill="none" stroke="#151521" stroke-width="3"/></g><g transform="translate(446 424)"><path d="M0 -9L7 -5.6L8.8 2L3.9 8.1L-3.9 8.1L-8.8 2L-7 -5.6Z" fill="none" stroke="#151521" stroke-width="3"/></g><g transform="translate(475 476)"><path d="M0 -8L6.3 -5L7.8 1.8L3.5 7.2L-3.5 7.2L-7.8 1.8L-6.3 -5Z" fill="none" stroke="#151521" stroke-width="3"/></g><g transform="translate(787 26)"><path d="M0 -7L5.5 -4.4L6.8 1.6L3 6.3L-3 6.3L-6.8 1.6L-5.5 -4.4Z" fill="none" stroke="#151521" stroke-width="3"/></g><g transform="translate(329 460)"><path d="M0 -10L7.8 -6.2L9.7 2.2L4.3 9L-4.3 9L-9.7 2.2L-7.8 -6.2Z" fill="none" stroke="#151521" stroke-width="3"/></g><g transform="translate(768 486)"><path d="M0 -10L7.8 -6.2L9.7 2.2L4.3 9L-4.3 9L-9.7 2.2L-7.8 -6.2Z" fill="none" stroke="#151521" stroke-width="3"/></g><g transform="translate(367 265)"><path d="M0 -10L7.8 -6.2L9.7 2.2L4.3 9L-4.3 9L-9.7 2.2L-7.8 -6.2Z" fill="none" stroke="#151521" stroke-width="3"/></g><g transform="translate(401 63)"><path d="M0 -8L6.3 -5L7.8 1.8L3.5 7.2L-3.5 7.2L-7.8 1.8L-6.3 -5Z" fill="none" stroke="#151521" stroke-width="3"/></g><g transform="translate(120 165)"><path d="M0 -8L6.3 -5L7.8 1.8L3.5 7.2L-3.5 7.2L-7.8 1.8L-6.3 -5Z" fill="none" stroke="#151521" stroke-width="3"/></g><g transform="translate(935 422)"><path d="M0 -7L5.5 -4.4L6.8 1.6L3 6.3L-3 6.3L-6.8 1.6L-5.5 -4.4Z" fill="none" stroke="#151521" stroke-width="3"/></g><g transform="translate(754 378)"><path d="M0 -1L0.8 -0.6L1 0.2L0.4 0.9L-0.4 0.9L-1 0.2L-0.8 -0.6Z" fill="none" stroke="#151521" stroke-width="3"/></g><g transform="translate(351 480)"><path d="M0 -5L3.9 -3.1L4.9 1.1L2.2 4.5L-2.2 4.5L-4.9 1.1L-3.9 -3.1Z" fill="none" stroke="#151521" stroke-width="3"/></g><g transform="translate(27 434)"><path d="M0 -1L0.8 -0.6L1 0.2L0.4 0.9L-0.4 0.9L-1 0.2L-0.8 -0.6Z" fill="none" stroke="#151521" stroke-width="3"/></g><g transform="translate(332 203)"><path d="M0 -2L1.6 -1.2L1.9 0.4L0.9 1.8L-0.9 1.8L-1.9 0.4L-1.6 -1.2Z" fill="none" stroke="#151521" stroke-width="3"/></g><g transform="translate(543 43)"><path d="M0 -3L2.3 -1.9L2.9 0.7L1.3 2.7L-1.3 2.7L-2.9 0.7L-2.3 -1.9Z" fill="none" stroke="#151521" stroke-width="3"/></g><g transform="translate(406 228)"><path d="M0 -6L4.7 -3.7L5.8 1.3L2.6 5.4L-2.6 5.4L-5.8 1.3L-4.7 -3.7Z" fill="none" stroke="#151521" stroke-width="3"/></g><g transform="translate(836 222)"><path d="M0 -2L1.6 -1.2L1.9 0.4L0.9 1.8L-0.9 1.8L-1.9 0.4L-1.6 -1.2Z" fill="none" stroke="#151521" stroke-width="3"/></g><g transform="translate(135 105)"><path d="M0 -6L4.7 -3.7L5.8 1.3L2.6 5.4L-2.6 5.4L-5.8 1.3L-4.7 -3.7Z" fill="none" stroke="#151521" stroke-width="3"/></g><g transform="translate(546 229)"><path d="M0 -9L7 -5.6L8.8 2L3.9 8.1L-3.9 8.1L-8.8 2L-7 -5.6Z" fill="none" stroke="#151521" stroke-width="3"/></g><g transform="translate(567 395)"><path d="M0 -9L7 -5.6L8.8 2L3.9 8.1L-3.9 8.1L-8.8 2L-7 -5.6Z" fill="none" stroke="#151521" stroke-width="3"/></g><g transform="translate(350 435)"><path d="M0 -2L1.6 -1.2L1.9 0.4L0.9 1.8L-0.9 1.8L-1.9 0.4L-1.6 -1.2Z" fill="none" stroke="#151521" stroke-width="3"/></g><g transform="translate(167 117)"><path d="M0 -9L7 -5.6L8.8 2L3.9 8.1L-3.9 8.1L-8.8 2L-7 -5.6Z" fill="none" stroke="#151521" stroke-width="3"/></g><g transform="translate(875 411)"><path d="M0 -1L0.8 -0.6L1 0.2L0.4 0.9L-0.4 0.9L-1 0.2L-0.8 -0.6Z" fill="none" stroke="#151521" stroke-width="3"/></g><g transform="translate(795 285)"><path d="M0 -1L0.8 -0.6L1 0.2L0.4 0.9L-0.4 0.9L-1 0.2L-0.8 -0.6Z" fill="none" stroke="#151521" stroke-width="3"/></g><g transform="translate(416 468)"><path d="M0 -10L7.8 -6.2L9.7 2.2L4.3 9L-4.3 9L-9.7 2.2L-7.8 -6.2Z" fill="none" stroke="#151521" stroke-width="3"/></g><g transform="translate(715 468)"><path d="M0 -8L6.3 -5L7.8 1.8L3.5 7.2L-3.5 7.2L-7.8 1.8L-6.3 -5Z" fill="none" stroke="#151521" stroke-width="3"/></g><g transform="translate(208 135)"><path d="M0 -10L7.8 -6.2L9.7 2.2L4.3 9L-4.3 9L-9.7 2.2L-7.8 -6.2Z" fill="none" stroke="#151521" stroke-width="3"/></g><g transform="translate(669 28)"><path d="M0 -10L7.8 -6.2L9.7 2.2L4.3 9L-4.3 9L-9.7 2.2L-7.8 -6.2Z" fill="none" stroke="#151521" stroke-width="3"/></g><g transform="translate(180 523)"><path d="M0 -8L6.3 -5L7.8 1.8L3.5 7.2L-3.5 7.2L-7.8 1.8L-6.3 -5Z" fill="none" stroke="#151521" stroke-width="3"/></g><g transform="translate(60 93)"><path d="M0 -1L0.8 -0.6L1 0.2L0.4 0.9L-0.4 0.9L-1 0.2L-0.8 -0.6Z" fill="none" stroke="#151521" stroke-width="3"/></g><g transform="translate(147 490)"><path d="M0 -1L0.8 -0.6L1 0.2L0.4 0.9L-0.4 0.9L-1 0.2L-0.8 -0.6Z" fill="none" stroke="#151521" stroke-width="3"/></g><g transform="translate(724 73)"><path d="M0 -1L0.8 -0.6L1 0.2L0.4 0.9L-0.4 0.9L-1 0.2L-0.8 -0.6Z" fill="none" stroke="#151521" stroke-width="3"/></g><g transform="translate(324 394)"><path d="M0 -10L7.8 -6.2L9.7 2.2L4.3 9L-4.3 9L-9.7 2.2L-7.8 -6.2Z" fill="none" stroke="#151521" stroke-width="3"/></g><g transform="translate(345 14)"><path d="M0 -1L0.8 -0.6L1 0.2L0.4 0.9L-0.4 0.9L-1 0.2L-0.8 -0.6Z" fill="none" stroke="#151521" stroke-width="3"/></g><g transform="translate(923 290)"><path d="M0 -7L5.5 -4.4L6.8 1.6L3 6.3L-3 6.3L-6.8 1.6L-5.5 -4.4Z" fill="none" stroke="#151521" stroke-width="3"/></g><g transform="translate(535 202)"><path d="M0 -9L7 -5.6L8.8 2L3.9 8.1L-3.9 8.1L-8.8 2L-7 -5.6Z" fill="none" stroke="#151521" stroke-width="3"/></g><g transform="translate(567 525)"><path d="M0 -9L7 -5.6L8.8 2L3.9 8.1L-3.9 8.1L-8.8 2L-7 -5.6Z" fill="none" stroke="#151521" stroke-width="3"/></g><g transform="translate(741 417)"><path d="M0 -9L7 -5.6L8.8 2L3.9 8.1L-3.9 8.1L-8.8 2L-7 -5.6Z" fill="none" stroke="#151521" stroke-width="3"/></g><g transform="translate(176 225)"><path d="M0 -9L7 -5.6L8.8 2L3.9 8.1L-3.9 8.1L-8.8 2L-7 -5.6Z" fill="none" stroke="#151521" stroke-width="3"/></g><g transform="translate(481 308)"><path d="M0 -5L3.9 -3.1L4.9 1.1L2.2 4.5L-2.2 4.5L-4.9 1.1L-3.9 -3.1Z" fill="none" stroke="#151521" stroke-width="3"/></g><g transform="translate(14 385)"><path d="M0 -2L1.6 -1.2L1.9 0.4L0.9 1.8L-0.9 1.8L-1.9 0.4L-1.6 -1.2Z" fill="none" stroke="#151521" stroke-width="3"/></g><g transform="translate(861 29)"><path d="M0 -2L1.6 -1.2L1.9 0.4L0.9 1.8L-0.9 1.8L-1.9 0.4L-1.6 -1.2Z" fill="none" stroke="#151521" stroke-width="3"/></g><g transform="translate(202 464)"><path d="M0 -11L8.6 -6.9L10.7 2.4L4.8 9.9L-4.8 9.9L-10.7 2.4L-8.6 -6.9Z" fill="none" stroke="#151521" stroke-width="3"/></g><g transform="translate(602 117)"><path d="M0 -1L0.8 -0.6L1 0.2L0.4 0.9L-0.4 0.9L-1 0.2L-0.8 -0.6Z" fill="none" stroke="#151521" stroke-width="3"/></g><g transform="translate(312 299)"><path d="M0 -4L3.1 -2.5L3.9 0.9L1.7 3.6L-1.7 3.6L-3.9 0.9L-3.1 -2.5Z" fill="none" stroke="#151521" stroke-width="3"/></g><g transform="translate(635 382)"><path d="M0 -1L0.8 -0.6L1 0.2L0.4 0.9L-0.4 0.9L-1 0.2L-0.8 -0.6Z" fill="none" stroke="#151521" stroke-width="3"/></g><g transform="translate(933 360)"><path d="M0 -2L1.6 -1.2L1.9 0.4L0.9 1.8L-0.9 1.8L-1.9 0.4L-1.6 -1.2Z" fill="none" stroke="#151521" stroke-width="3"/></g><g transform="translate(743 52)"><path d="M0 -10L7.8 -6.2L9.7 2.2L4.3 9L-4.3 9L-9.7 2.2L-7.8 -6.2Z" fill="none" stroke="#151521" stroke-width="3"/></g><g transform="translate(692 46)"><path d="M0 -7L5.5 -4.4L6.8 1.6L3 6.3L-3 6.3L-6.8 1.6L-5.5 -4.4Z" fill="none" stroke="#151521" stroke-width="3"/></g><g transform="translate(386 511)"><path d="M0 -5L3.9 -3.1L4.9 1.1L2.2 4.5L-2.2 4.5L-4.9 1.1L-3.9 -3.1Z" fill="none" stroke="#151521" stroke-width="3"/></g><g transform="translate(25 126)"><path d="M0 -11L8.6 -6.9L10.7 2.4L4.8 9.9L-4.8 9.9L-10.7 2.4L-8.6 -6.9Z" fill="none" stroke="#151521" stroke-width="3"/></g><g transform="translate(442 217)"><path d="M0 -11L8.6 -6.9L10.7 2.4L4.8 9.9L-4.8 9.9L-10.7 2.4L-8.6 -6.9Z" fill="none" stroke="#151521" stroke-width="3"/></g><g transform="translate(750 249)"><path d="M0 -2L1.6 -1.2L1.9 0.4L0.9 1.8L-0.9 1.8L-1.9 0.4L-1.6 -1.2Z" fill="none" stroke="#151521" stroke-width="3"/></g><g transform="translate(595 176)"><path d="M0 -1L0.8 -0.6L1 0.2L0.4 0.9L-0.4 0.9L-1 0.2L-0.8 -0.6Z" fill="none" stroke="#151521" stroke-width="3"/></g><g transform="translate(758 325)"><path d="M0 -8L6.3 -5L7.8 1.8L3.5 7.2L-3.5 7.2L-7.8 1.8L-6.3 -5Z" fill="none" stroke="#151521" stroke-width="3"/></g><g transform="translate(567 344)"><path d="M0 -2L1.6 -1.2L1.9 0.4L0.9 1.8L-0.9 1.8L-1.9 0.4L-1.6 -1.2Z" fill="none" stroke="#151521" stroke-width="3"/></g><g transform="translate(183 264)"><path d="M0 -2L1.6 -1.2L1.9 0.4L0.9 1.8L-0.9 1.8L-1.9 0.4L-1.6 -1.2Z" fill="none" stroke="#151521" stroke-width="3"/></g><g transform="translate(907 28)"><path d="M0 -8L6.3 -5L7.8 1.8L3.5 7.2L-3.5 7.2L-7.8 1.8L-6.3 -5Z" fill="none" stroke="#151521" stroke-width="3"/></g><g transform="translate(287 251)"><path d="M0 -4L3.1 -2.5L3.9 0.9L1.7 3.6L-1.7 3.6L-3.9 0.9L-3.1 -2.5Z" fill="none" stroke="#151521" stroke-width="3"/></g><g transform="translate(629 128)"><path d="M0 -10L7.8 -6.2L9.7 2.2L4.3 9L-4.3 9L-9.7 2.2L-7.8 -6.2Z" fill="none" stroke="#151521" stroke-width="3"/></g><g transform="translate(664 219)"><path d="M0 -9L7 -5.6L8.8 2L3.9 8.1L-3.9 8.1L-8.8 2L-7 -5.6Z" fill="none" stroke="#151521" stroke-width="3"/></g><g transform="translate(91 19)"><path d="M0 -10L7.8 -6.2L9.7 2.2L4.3 9L-4.3 9L-9.7 2.2L-7.8 -6.2Z" fill="none" stroke="#151521" stroke-width="3"/></g><g transform="translate(390 35)"><path d="M0 -3L2.3 -1.9L2.9 0.7L1.3 2.7L-1.3 2.7L-2.9 0.7L-2.3 -1.9Z" fill="none" stroke="#151521" stroke-width="3"/></g><g transform="translate(559 369)"><path d="M0 -7L5.5 -4.4L6.8 1.6L3 6.3L-3 6.3L-6.8 1.6L-5.5 -4.4Z" fill="none" stroke="#151521" stroke-width="3"/></g><g transform="translate(16 340)"><path d="M0 -4L3.1 -2.5L3.9 0.9L1.7 3.6L-1.7 3.6L-3.9 0.9L-3.1 -2.5Z" fill="none" stroke="#151521" stroke-width="3"/></g><g transform="translate(538 144)"><path d="M0 -11L8.6 -6.9L10.7 2.4L4.8 9.9L-4.8 9.9L-10.7 2.4L-8.6 -6.9Z" fill="none" stroke="#151521" stroke-width="3"/></g><g transform="translate(634 14)"><path d="M0 -10L7.8 -6.2L9.7 2.2L4.3 9L-4.3 9L-9.7 2.2L-7.8 -6.2Z" fill="none" stroke="#151521" stroke-width="3"/></g><g transform="translate(36 15)"><path d="M0 -5L3.9 -3.1L4.9 1.1L2.2 4.5L-2.2 4.5L-4.9 1.1L-3.9 -3.1Z" fill="none" stroke="#151521" stroke-width="3"/></g><g transform="translate(598 372)"><path d="M0 -5L3.9 -3.1L4.9 1.1L2.2 4.5L-2.2 4.5L-4.9 1.1L-3.9 -3.1Z" fill="none" stroke="#151521" stroke-width="3"/></g><g transform="translate(152 518)"><path d="M0 -2L1.6 -1.2L1.9 0.4L0.9 1.8L-0.9 1.8L-1.9 0.4L-1.6 -1.2Z" fill="none" stroke="#151521" stroke-width="3"/></g><g transform="translate(164 443)"><path d="M0 -2L1.6 -1.2L1.9 0.4L0.9 1.8L-0.9 1.8L-1.9 0.4L-1.6 -1.2Z" fill="none" stroke="#151521" stroke-width="3"/></g><g transform="translate(664 116)"><path d="M0 -10L7.8 -6.2L9.7 2.2L4.3 9L-4.3 9L-9.7 2.2L-7.8 -6.2Z" fill="none" stroke="#151521" stroke-width="3"/></g><g transform="translate(91 111)"><path d="M0 -7L5.5 -4.4L6.8 1.6L3 6.3L-3 6.3L-6.8 1.6L-5.5 -4.4Z" fill="none" stroke="#151521" stroke-width="3"/></g><g transform="translate(41 229)"><path d="M0 -8L6.3 -5L7.8 1.8L3.5 7.2L-3.5 7.2L-7.8 1.8L-6.3 -5Z" fill="none" stroke="#151521" stroke-width="3"/></g><g transform="translate(945 305)"><path d="M0 -6L4.7 -3.7L5.8 1.3L2.6 5.4L-2.6 5.4L-5.8 1.3L-4.7 -3.7Z" fill="none" stroke="#151521" stroke-width="3"/></g><g transform="translate(271 86)"><path d="M0 -3L2.3 -1.9L2.9 0.7L1.3 2.7L-1.3 2.7L-2.9 0.7L-2.3 -1.9Z" fill="none" stroke="#151521" stroke-width="3"/></g><g transform="translate(278 60)"><path d="M0 -10L7.8 -6.2L9.7 2.2L4.3 9L-4.3 9L-9.7 2.2L-7.8 -6.2Z" fill="none" stroke="#151521" stroke-width="3"/></g><g transform="translate(445 511)"><path d="M0 -7L5.5 -4.4L6.8 1.6L3 6.3L-3 6.3L-6.8 1.6L-5.5 -4.4Z" fill="none" stroke="#151521" stroke-width="3"/></g><g transform="translate(202 198)"><path d="M0 -10L7.8 -6.2L9.7 2.2L4.3 9L-4.3 9L-9.7 2.2L-7.8 -6.2Z" fill="none" stroke="#151521" stroke-width="3"/></g><g transform="translate(92 161)"><path d="M0 -2L1.6 -1.2L1.9 0.4L0.9 1.8L-0.9 1.8L-1.9 0.4L-1.6 -1.2Z" fill="none" stroke="#151521" stroke-width="3"/></g><g transform="translate(399 153)"><path d="M0 -9L7 -5.6L8.8 2L3.9 8.1L-3.9 8.1L-8.8 2L-7 -5.6Z" fill="none" stroke="#151521" stroke-width="3"/></g><g transform="translate(878 209)"><path d="M0 -6L4.7 -3.7L5.8 1.3L2.6 5.4L-2.6 5.4L-5.8 1.3L-4.7 -3.7Z" fill="none" stroke="#151521" stroke-width="3"/></g><g transform="translate(539 481)"><path d="M0 -8L6.3 -5L7.8 1.8L3.5 7.2L-3.5 7.2L-7.8 1.8L-6.3 -5Z" fill="none" stroke="#151521" stroke-width="3"/></g><g transform="translate(736 151)"><path d="M0 -5L3.9 -3.1L4.9 1.1L2.2 4.5L-2.2 4.5L-4.9 1.1L-3.9 -3.1Z" fill="none" stroke="#151521" stroke-width="3"/></g><g transform="translate(26 468)"><path d="M0 -2L1.6 -1.2L1.9 0.4L0.9 1.8L-0.9 1.8L-1.9 0.4L-1.6 -1.2Z" fill="none" stroke="#151521" stroke-width="3"/></g><g transform="translate(774 403)"><path d="M0 -4L3.1 -2.5L3.9 0.9L1.7 3.6L-1.7 3.6L-3.9 0.9L-3.1 -2.5Z" fill="none" stroke="#151521" stroke-width="3"/></g><g transform="translate(707 169)"><path d="M0 -3L2.3 -1.9L2.9 0.7L1.3 2.7L-1.3 2.7L-2.9 0.7L-2.3 -1.9Z" fill="none" stroke="#151521" stroke-width="3"/></g><g transform="translate(14 40)"><path d="M0 -1L0.8 -0.6L1 0.2L0.4 0.9L-0.4 0.9L-1 0.2L-0.8 -0.6Z" fill="none" stroke="#151521" stroke-width="3"/></g><g transform="translate(306 99)"><path d="M0 -7L5.5 -4.4L6.8 1.6L3 6.3L-3 6.3L-6.8 1.6L-5.5 -4.4Z" fill="none" stroke="#151521" stroke-width="3"/></g><g transform="translate(572 157)"><path d="M0 -10L7.8 -6.2L9.7 2.2L4.3 9L-4.3 9L-9.7 2.2L-7.8 -6.2Z" fill="none" stroke="#151521" stroke-width="3"/></g><g transform="translate(155 323)"><path d="M0 -8L6.3 -5L7.8 1.8L3.5 7.2L-3.5 7.2L-7.8 1.8L-6.3 -5Z" fill="none" stroke="#151521" stroke-width="3"/></g><g transform="translate(46 347)"><path d="M0 -4L3.1 -2.5L3.9 0.9L1.7 3.6L-1.7 3.6L-3.9 0.9L-3.1 -2.5Z" fill="none" stroke="#151521" stroke-width="3"/></g><g transform="translate(709 439)"><path d="M0 -6L4.7 -3.7L5.8 1.3L2.6 5.4L-2.6 5.4L-5.8 1.3L-4.7 -3.7Z" fill="none" stroke="#151521" stroke-width="3"/></g><g transform="translate(214 288)"><path d="M0 -3L2.3 -1.9L2.9 0.7L1.3 2.7L-1.3 2.7L-2.9 0.7L-2.3 -1.9Z" fill="none" stroke="#151521" stroke-width="3"/></g><g transform="translate(158 269)"><path d="M0 -2L1.6 -1.2L1.9 0.4L0.9 1.8L-0.9 1.8L-1.9 0.4L-1.6 -1.2Z" fill="none" stroke="#151521" stroke-width="3"/></g><g transform="translate(285 525)"><path d="M0 -1L0.8 -0.6L1 0.2L0.4 0.9L-0.4 0.9L-1 0.2L-0.8 -0.6Z" fill="none" stroke="#151521" stroke-width="3"/></g><g transform="translate(467 527)"><path d="M0 -8L6.3 -5L7.8 1.8L3.5 7.2L-3.5 7.2L-7.8 1.8L-6.3 -5Z" fill="none" stroke="#151521" stroke-width="3"/></g><g transform="translate(811 427)"><path d="M0 -2L1.6 -1.2L1.9 0.4L0.9 1.8L-0.9 1.8L-1.9 0.4L-1.6 -1.2Z" fill="none" stroke="#151521" stroke-width="3"/></g><g transform="translate(529 376)"><path d="M0 -6L4.7 -3.7L5.8 1.3L2.6 5.4L-2.6 5.4L-5.8 1.3L-4.7 -3.7Z" fill="none" stroke="#151521" stroke-width="3"/></g><g transform="translate(496 235)"><path d="M0 -11L8.6 -6.9L10.7 2.4L4.8 9.9L-4.8 9.9L-10.7 2.4L-8.6 -6.9Z" fill="none" stroke="#151521" stroke-width="3"/></g><g transform="translate(947 385)"><path d="M0 -3L2.3 -1.9L2.9 0.7L1.3 2.7L-1.3 2.7L-2.9 0.7L-2.3 -1.9Z" fill="none" stroke="#151521" stroke-width="3"/></g><g transform="translate(222 433)"><path d="M0 -8L6.3 -5L7.8 1.8L3.5 7.2L-3.5 7.2L-7.8 1.8L-6.3 -5Z" fill="none" stroke="#151521" stroke-width="3"/></g><g transform="translate(173 192)"><path d="M0 -1L0.8 -0.6L1 0.2L0.4 0.9L-0.4 0.9L-1 0.2L-0.8 -0.6Z" fill="none" stroke="#151521" stroke-width="3"/></g><g transform="translate(651 491)"><path d="M0 -8L6.3 -5L7.8 1.8L3.5 7.2L-3.5 7.2L-7.8 1.8L-6.3 -5Z" fill="none" stroke="#151521" stroke-width="3"/></g><g transform="translate(813 398)"><path d="M0 -9L7 -5.6L8.8 2L3.9 8.1L-3.9 8.1L-8.8 2L-7 -5.6Z" fill="none" stroke="#151521" stroke-width="3"/></g><g transform="translate(901 481)"><path d="M0 -5L3.9 -3.1L4.9 1.1L2.2 4.5L-2.2 4.5L-4.9 1.1L-3.9 -3.1Z" fill="none" stroke="#151521" stroke-width="3"/></g><g transform="translate(351 149)"><path d="M0 -2L1.6 -1.2L1.9 0.4L0.9 1.8L-0.9 1.8L-1.9 0.4L-1.6 -1.2Z" fill="none" stroke="#151521" stroke-width="3"/></g><g transform="translate(584 322)"><path d="M0 -2L1.6 -1.2L1.9 0.4L0.9 1.8L-0.9 1.8L-1.9 0.4L-1.6 -1.2Z" fill="none" stroke="#151521" stroke-width="3"/></g><g transform="translate(440 455)"><path d="M0 -5L3.9 -3.1L4.9 1.1L2.2 4.5L-2.2 4.5L-4.9 1.1L-3.9 -3.1Z" fill="none" stroke="#151521" stroke-width="3"/></g><g transform="translate(836 411)"><path d="M0 -3L2.3 -1.9L2.9 0.7L1.3 2.7L-1.3 2.7L-2.9 0.7L-2.3 -1.9Z" fill="none" stroke="#151521" stroke-width="3"/></g><g transform="translate(907 133)"><path d="M0 -9L7 -5.6L8.8 2L3.9 8.1L-3.9 8.1L-8.8 2L-7 -5.6Z" fill="none" stroke="#151521" stroke-width="3"/></g><g transform="translate(61 488)"><path d="M0 -6L4.7 -3.7L5.8 1.3L2.6 5.4L-2.6 5.4L-5.8 1.3L-4.7 -3.7Z" fill="none" stroke="#151521" stroke-width="3"/></g><g transform="translate(829 525)"><path d="M0 -7L5.5 -4.4L6.8 1.6L3 6.3L-3 6.3L-6.8 1.6L-5.5 -4.4Z" fill="none" stroke="#151521" stroke-width="3"/></g><g transform="translate(18 507)"><path d="M0 -1L0.8 -0.6L1 0.2L0.4 0.9L-0.4 0.9L-1 0.2L-0.8 -0.6Z" fill="none" stroke="#151521" stroke-width="3"/></g><g transform="translate(88 200)"><path d="M0 -10L7.8 -6.2L9.7 2.2L4.3 9L-4.3 9L-9.7 2.2L-7.8 -6.2Z" fill="none" stroke="#151521" stroke-width="3"/></g><g transform="translate(183 26)"><path d="M0 -3L2.3 -1.9L2.9 0.7L1.3 2.7L-1.3 2.7L-2.9 0.7L-2.3 -1.9Z" fill="none" stroke="#151521" stroke-width="3"/></g><g transform="translate(870 310)"><path d="M0 -11L8.6 -6.9L10.7 2.4L4.8 9.9L-4.8 9.9L-10.7 2.4L-8.6 -6.9Z" fill="none" stroke="#151521" stroke-width="3"/></g><g transform="translate(55 180)"><path d="M0 -1L0.8 -0.6L1 0.2L0.4 0.9L-0.4 0.9L-1 0.2L-0.8 -0.6Z" fill="none" stroke="#151521" stroke-width="3"/></g><g transform="translate(625 482)"><path d="M0 -11L8.6 -6.9L10.7 2.4L4.8 9.9L-4.8 9.9L-10.7 2.4L-8.6 -6.9Z" fill="none" stroke="#151521" stroke-width="3"/></g><g transform="translate(31 152)"><path d="M0 -1L0.8 -0.6L1 0.2L0.4 0.9L-0.4 0.9L-1 0.2L-0.8 -0.6Z" fill="none" stroke="#151521" stroke-width="3"/></g><g transform="translate(483 379)"><path d="M0 -7L5.5 -4.4L6.8 1.6L3 6.3L-3 6.3L-6.8 1.6L-5.5 -4.4Z" fill="none" stroke="#151521" stroke-width="3"/></g><g transform="translate(812 307)"><path d="M0 -9L7 -5.6L8.8 2L3.9 8.1L-3.9 8.1L-8.8 2L-7 -5.6Z" fill="none" stroke="#151521" stroke-width="3"/></g><g transform="translate(447 481)"><path d="M0 -9L7 -5.6L8.8 2L3.9 8.1L-3.9 8.1L-8.8 2L-7 -5.6Z" fill="none" stroke="#151521" stroke-width="3"/></g><g transform="translate(417 202)"><path d="M0 -10L7.8 -6.2L9.7 2.2L4.3 9L-4.3 9L-9.7 2.2L-7.8 -6.2Z" fill="none" stroke="#151521" stroke-width="3"/></g><g transform="translate(350 402)"><path d="M0 -6L4.7 -3.7L5.8 1.3L2.6 5.4L-2.6 5.4L-5.8 1.3L-4.7 -3.7Z" fill="none" stroke="#151521" stroke-width="3"/></g><g transform="translate(804 373)"><path d="M0 -1L0.8 -0.6L1 0.2L0.4 0.9L-0.4 0.9L-1 0.2L-0.8 -0.6Z" fill="none" stroke="#151521" stroke-width="3"/></g><g transform="translate(297 369)"><path d="M0 -3L2.3 -1.9L2.9 0.7L1.3 2.7L-1.3 2.7L-2.9 0.7L-2.3 -1.9Z" fill="none" stroke="#151521" stroke-width="3"/></g><g transform="translate(850 503)"><path d="M0 -3L2.3 -1.9L2.9 0.7L1.3 2.7L-1.3 2.7L-2.9 0.7L-2.3 -1.9Z" fill="none" stroke="#151521" stroke-width="3"/></g><g transform="translate(56 127)"><path d="M0 -4L3.1 -2.5L3.9 0.9L1.7 3.6L-1.7 3.6L-3.9 0.9L-3.1 -2.5Z" fill="none" stroke="#151521" stroke-width="3"/></g><g transform="translate(809 127)"><path d="M0 -10L7.8 -6.2L9.7 2.2L4.3 9L-4.3 9L-9.7 2.2L-7.8 -6.2Z" fill="none" stroke="#151521" stroke-width="3"/></g><g transform="translate(185 312)"><path d="M0 -7L5.5 -4.4L6.8 1.6L3 6.3L-3 6.3L-6.8 1.6L-5.5 -4.4Z" fill="none" stroke="#151521" stroke-width="3"/></g><g transform="translate(479 93)"><path d="M0 -6L4.7 -3.7L5.8 1.3L2.6 5.4L-2.6 5.4L-5.8 1.3L-4.7 -3.7Z" fill="none" stroke="#151521" stroke-width="3"/></g><g transform="translate(564 13)"><path d="M0 -10L7.8 -6.2L9.7 2.2L4.3 9L-4.3 9L-9.7 2.2L-7.8 -6.2Z" fill="none" stroke="#151521" stroke-width="3"/></g><g transform="translate(409 14)"><path d="M0 -10L7.8 -6.2L9.7 2.2L4.3 9L-4.3 9L-9.7 2.2L-7.8 -6.2Z" fill="none" stroke="#151521" stroke-width="3"/></g><g transform="translate(579 237)"><path d="M0 -4L3.1 -2.5L3.9 0.9L1.7 3.6L-1.7 3.6L-3.9 0.9L-3.1 -2.5Z" fill="none" stroke="#151521" stroke-width="3"/></g><g transform="translate(115 525)"><path d="M0 -11L8.6 -6.9L10.7 2.4L4.8 9.9L-4.8 9.9L-10.7 2.4L-8.6 -6.9Z" fill="none" stroke="#151521" stroke-width="3"/></g><g transform="translate(505 71)"><path d="M0 -4L3.1 -2.5L3.9 0.9L1.7 3.6L-1.7 3.6L-3.9 0.9L-3.1 -2.5Z" fill="none" stroke="#151521" stroke-width="3"/></g><g transform="translate(224 112)"><path d="M0 -2L1.6 -1.2L1.9 0.4L0.9 1.8L-0.9 1.8L-1.9 0.4L-1.6 -1.2Z" fill="none" stroke="#151521" stroke-width="3"/></g><g transform="translate(374 302)"><path d="M0 -5L3.9 -3.1L4.9 1.1L2.2 4.5L-2.2 4.5L-4.9 1.1L-3.9 -3.1Z" fill="none" stroke="#151521" stroke-width="3"/></g><g transform="translate(361 35)"><path d="M0 -3L2.3 -1.9L2.9 0.7L1.3 2.7L-1.3 2.7L-2.9 0.7L-2.3 -1.9Z" fill="none" stroke="#151521" stroke-width="3"/></g><g transform="translate(945 147)"><path d="M0 -4L3.1 -2.5L3.9 0.9L1.7 3.6L-1.7 3.6L-3.9 0.9L-3.1 -2.5Z" fill="none" stroke="#151521" stroke-width="3"/></g><g transform="translate(872 252)"><path d="M0 -7L5.5 -4.4L6.8 1.6L3 6.3L-3 6.3L-6.8 1.6L-5.5 -4.4Z" fill="none" stroke="#151521" stroke-width="3"/></g><g transform="translate(900 521)"><path d="M0 -9L7 -5.6L8.8 2L3.9 8.1L-3.9 8.1L-8.8 2L-7 -5.6Z" fill="none" stroke="#151521" stroke-width="3"/></g><g transform="translate(728 364)"><path d="M0 -2L1.6 -1.2L1.9 0.4L0.9 1.8L-0.9 1.8L-1.9 0.4L-1.6 -1.2Z" fill="none" stroke="#151521" stroke-width="3"/></g><g transform="translate(585 34)"><path d="M0 -3L2.3 -1.9L2.9 0.7L1.3 2.7L-1.3 2.7L-2.9 0.7L-2.3 -1.9Z" fill="none" stroke="#151521" stroke-width="3"/></g><g transform="translate(483 447)"><path d="M0 -5L3.9 -3.1L4.9 1.1L2.2 4.5L-2.2 4.5L-4.9 1.1L-3.9 -3.1Z" fill="none" stroke="#151521" stroke-width="3"/></g><g transform="translate(34 57)"><path d="M0 -11L8.6 -6.9L10.7 2.4L4.8 9.9L-4.8 9.9L-10.7 2.4L-8.6 -6.9Z" fill="none" stroke="#151521" stroke-width="3"/></g><g transform="translate(773 220)"><path d="M0 -9L7 -5.6L8.8 2L3.9 8.1L-3.9 8.1L-8.8 2L-7 -5.6Z" fill="none" stroke="#151521" stroke-width="3"/></g><g transform="translate(71 333)"><path d="M0 -4L3.1 -2.5L3.9 0.9L1.7 3.6L-1.7 3.6L-3.9 0.9L-3.1 -2.5Z" fill="none" stroke="#151521" stroke-width="3"/></g><g transform="translate(585 71)"><path d="M0 -6L4.7 -3.7L5.8 1.3L2.6 5.4L-2.6 5.4L-5.8 1.3L-4.7 -3.7Z" fill="none" stroke="#151521" stroke-width="3"/></g><g transform="translate(941 35)"><path d="M0 -11L8.6 -6.9L10.7 2.4L4.8 9.9L-4.8 9.9L-10.7 2.4L-8.6 -6.9Z" fill="none" stroke="#151521" stroke-width="3"/></g><g transform="translate(726 125)"><path d="M0 -1L0.8 -0.6L1 0.2L0.4 0.9L-0.4 0.9L-1 0.2L-0.8 -0.6Z" fill="none" stroke="#151521" stroke-width="3"/></g><g transform="translate(98 241)"><path d="M0 -10L7.8 -6.2L9.7 2.2L4.3 9L-4.3 9L-9.7 2.2L-7.8 -6.2Z" fill="none" stroke="#151521" stroke-width="3"/></g><g transform="translate(344 376)"><path d="M0 -3L2.3 -1.9L2.9 0.7L1.3 2.7L-1.3 2.7L-2.9 0.7L-2.3 -1.9Z" fill="none" stroke="#151521" stroke-width="3"/></g><g transform="translate(83 76)"><path d="M0 -10L7.8 -6.2L9.7 2.2L4.3 9L-4.3 9L-9.7 2.2L-7.8 -6.2Z" fill="none" stroke="#151521" stroke-width="3"/></g><g transform="translate(737 496)"><path d="M0 -2L1.6 -1.2L1.9 0.4L0.9 1.8L-0.9 1.8L-1.9 0.4L-1.6 -1.2Z" fill="none" stroke="#151521" stroke-width="3"/></g><g transform="translate(442 15)"><path d="M0 -1L0.8 -0.6L1 0.2L0.4 0.9L-0.4 0.9L-1 0.2L-0.8 -0.6Z" fill="none" stroke="#151521" stroke-width="3"/></g><g transform="translate(630 356)"><path d="M0 -4L3.1 -2.5L3.9 0.9L1.7 3.6L-1.7 3.6L-3.9 0.9L-3.1 -2.5Z" fill="none" stroke="#151521" stroke-width="3"/></g><g transform="translate(775 84)"><path d="M0 -6L4.7 -3.7L5.8 1.3L2.6 5.4L-2.6 5.4L-5.8 1.3L-4.7 -3.7Z" fill="none" stroke="#151521" stroke-width="3"/></g><g transform="translate(396 487)"><path d="M0 -10L7.8 -6.2L9.7 2.2L4.3 9L-4.3 9L-9.7 2.2L-7.8 -6.2Z" fill="none" stroke="#151521" stroke-width="3"/></g><g transform="translate(62 51)"><path d="M0 -11L8.6 -6.9L10.7 2.4L4.8 9.9L-4.8 9.9L-10.7 2.4L-8.6 -6.9Z" fill="none" stroke="#151521" stroke-width="3"/></g><g transform="translate(510 33)"><path d="M0 -1L0.8 -0.6L1 0.2L0.4 0.9L-0.4 0.9L-1 0.2L-0.8 -0.6Z" fill="none" stroke="#151521" stroke-width="3"/></g><g transform="translate(56 264)"><path d="M0 -6L4.7 -3.7L5.8 1.3L2.6 5.4L-2.6 5.4L-5.8 1.3L-4.7 -3.7Z" fill="none" stroke="#151521" stroke-width="3"/></g><g transform="translate(290 444)"><path d="M0 -7L5.5 -4.4L6.8 1.6L3 6.3L-3 6.3L-6.8 1.6L-5.5 -4.4Z" fill="none" stroke="#151521" stroke-width="3"/></g><g transform="translate(760 351)"><path d="M0 -4L3.1 -2.5L3.9 0.9L1.7 3.6L-1.7 3.6L-3.9 0.9L-3.1 -2.5Z" fill="none" stroke="#151521" stroke-width="3"/></g><g transform="translate(496 501)"><path d="M0 -10L7.8 -6.2L9.7 2.2L4.3 9L-4.3 9L-9.7 2.2L-7.8 -6.2Z" fill="none" stroke="#151521" stroke-width="3"/></g><g transform="translate(925 93)"><path d="M0 -5L3.9 -3.1L4.9 1.1L2.2 4.5L-2.2 4.5L-4.9 1.1L-3.9 -3.1Z" fill="none" stroke="#151521" stroke-width="3"/></g><g transform="translate(81 519)"><path d="M0 -7L5.5 -4.4L6.8 1.6L3 6.3L-3 6.3L-6.8 1.6L-5.5 -4.4Z" fill="none" stroke="#151521" stroke-width="3"/></g><g transform="translate(364 98)"><path d="M0 -4L3.1 -2.5L3.9 0.9L1.7 3.6L-1.7 3.6L-3.9 0.9L-3.1 -2.5Z" fill="none" stroke="#151521" stroke-width="3"/></g><g transform="translate(752 105)"><path d="M0 -4L3.1 -2.5L3.9 0.9L1.7 3.6L-1.7 3.6L-3.9 0.9L-3.1 -2.5Z" fill="none" stroke="#151521" stroke-width="3"/></g><g transform="translate(920 195)"><path d="M0 -8L6.3 -5L7.8 1.8L3.5 7.2L-3.5 7.2L-7.8 1.8L-6.3 -5Z" fill="none" stroke="#151521" stroke-width="3"/></g><g transform="translate(762 446)"><path d="M0 -9L7 -5.6L8.8 2L3.9 8.1L-3.9 8.1L-8.8 2L-7 -5.6Z" fill="none" stroke="#151521" stroke-width="3"/></g><g transform="translate(16 314)"><path d="M0 -10L7.8 -6.2L9.7 2.2L4.3 9L-4.3 9L-9.7 2.2L-7.8 -6.2Z" fill="none" stroke="#151521" stroke-width="3"/></g><g transform="translate(690 80)"><path d="M0 -5L3.9 -3.1L4.9 1.1L2.2 4.5L-2.2 4.5L-4.9 1.1L-3.9 -3.1Z" fill="none" stroke="#151521" stroke-width="3"/></g><g transform="translate(756 23)"><path d="M0 -4L3.1 -2.5L3.9 0.9L1.7 3.6L-1.7 3.6L-3.9 0.9L-3.1 -2.5Z" fill="none" stroke="#151521" stroke-width="3"/></g><g transform="translate(795 527)"><path d="M0 -5L3.9 -3.1L4.9 1.1L2.2 4.5L-2.2 4.5L-4.9 1.1L-3.9 -3.1Z" fill="none" stroke="#151521" stroke-width="3"/></g><g transform="translate(355 526)"><path d="M0 -7L5.5 -4.4L6.8 1.6L3 6.3L-3 6.3L-6.8 1.6L-5.5 -4.4Z" fill="none" stroke="#151521" stroke-width="3"/></g><g transform="translate(257 22)"><path d="M0 -8L6.3 -5L7.8 1.8L3.5 7.2L-3.5 7.2L-7.8 1.8L-6.3 -5Z" fill="none" stroke="#151521" stroke-width="3"/></g><g transform="translate(382 185)"><path d="M0 -1L0.8 -0.6L1 0.2L0.4 0.9L-0.4 0.9L-1 0.2L-0.8 -0.6Z" fill="none" stroke="#151521" stroke-width="3"/></g><g transform="translate(247 307)"><path d="M0 -9L7 -5.6L8.8 2L3.9 8.1L-3.9 8.1L-8.8 2L-7 -5.6Z" fill="none" stroke="#151521" stroke-width="3"/></g><g transform="translate(698 522)"><path d="M0 -10L7.8 -6.2L9.7 2.2L4.3 9L-4.3 9L-9.7 2.2L-7.8 -6.2Z" fill="none" stroke="#151521" stroke-width="3"/></g><g transform="translate(454 396)"><path d="M0 -3L2.3 -1.9L2.9 0.7L1.3 2.7L-1.3 2.7L-2.9 0.7L-2.3 -1.9Z" fill="none" stroke="#151521" stroke-width="3"/></g><g transform="translate(707 198)"><path d="M0 -9L7 -5.6L8.8 2L3.9 8.1L-3.9 8.1L-8.8 2L-7 -5.6Z" fill="none" stroke="#151521" stroke-width="3"/></g><g transform="translate(684 276)"><path d="M0 -11L8.6 -6.9L10.7 2.4L4.8 9.9L-4.8 9.9L-10.7 2.4L-8.6 -6.9Z" fill="none" stroke="#151521" stroke-width="3"/></g><g transform="translate(95 469)"><path d="M0 -6L4.7 -3.7L5.8 1.3L2.6 5.4L-2.6 5.4L-5.8 1.3L-4.7 -3.7Z" fill="none" stroke="#151521" stroke-width="3"/></g><g transform="translate(615 327)"><path d="M0 -3L2.3 -1.9L2.9 0.7L1.3 2.7L-1.3 2.7L-2.9 0.7L-2.3 -1.9Z" fill="none" stroke="#151521" stroke-width="3"/></g><g transform="translate(676 407)"><path d="M0 -8L6.3 -5L7.8 1.8L3.5 7.2L-3.5 7.2L-7.8 1.8L-6.3 -5Z" fill="none" stroke="#151521" stroke-width="3"/></g><g transform="translate(280 328)"><path d="M0 -1L0.8 -0.6L1 0.2L0.4 0.9L-0.4 0.9L-1 0.2L-0.8 -0.6Z" fill="none" stroke="#151521" stroke-width="3"/></g><g transform="translate(649 462)"><path d="M0 -10L7.8 -6.2L9.7 2.2L4.3 9L-4.3 9L-9.7 2.2L-7.8 -6.2Z" fill="none" stroke="#151521" stroke-width="3"/></g><g transform="translate(230 469)"><path d="M0 -3L2.3 -1.9L2.9 0.7L1.3 2.7L-1.3 2.7L-2.9 0.7L-2.3 -1.9Z" fill="none" stroke="#151521" stroke-width="3"/></g><g transform="translate(591 425)"><path d="M0 -6L4.7 -3.7L5.8 1.3L2.6 5.4L-2.6 5.4L-5.8 1.3L-4.7 -3.7Z" fill="none" stroke="#151521" stroke-width="3"/></g><g transform="translate(944 244)"><path d="M0 -5L3.9 -3.1L4.9 1.1L2.2 4.5L-2.2 4.5L-4.9 1.1L-3.9 -3.1Z" fill="none" stroke="#151521" stroke-width="3"/></g><g transform="translate(763 133)"><path d="M0 -10L7.8 -6.2L9.7 2.2L4.3 9L-4.3 9L-9.7 2.2L-7.8 -6.2Z" fill="none" stroke="#151521" stroke-width="3"/></g><g transform="translate(393 322)"><path d="M0 -2L1.6 -1.2L1.9 0.4L0.9 1.8L-0.9 1.8L-1.9 0.4L-1.6 -1.2Z" fill="none" stroke="#151521" stroke-width="3"/></g><g transform="translate(830 257)"><path d="M0 -3L2.3 -1.9L2.9 0.7L1.3 2.7L-1.3 2.7L-2.9 0.7L-2.3 -1.9Z" fill="none" stroke="#151521" stroke-width="3"/></g><g transform="translate(787 317)"><path d="M0 -7L5.5 -4.4L6.8 1.6L3 6.3L-3 6.3L-6.8 1.6L-5.5 -4.4Z" fill="none" stroke="#151521" stroke-width="3"/></g><g transform="translate(315 230)"><path d="M0 -6L4.7 -3.7L5.8 1.3L2.6 5.4L-2.6 5.4L-5.8 1.3L-4.7 -3.7Z" fill="none" stroke="#151521" stroke-width="3"/></g><g transform="translate(62 425)"><path d="M0 -2L1.6 -1.2L1.9 0.4L0.9 1.8L-0.9 1.8L-1.9 0.4L-1.6 -1.2Z" fill="none" stroke="#151521" stroke-width="3"/></g><g transform="translate(274 144)"><path d="M0 -3L2.3 -1.9L2.9 0.7L1.3 2.7L-1.3 2.7L-2.9 0.7L-2.3 -1.9Z" fill="none" stroke="#151521" stroke-width="3"/></g><g transform="translate(446 108)"><path d="M0 -5L3.9 -3.1L4.9 1.1L2.2 4.5L-2.2 4.5L-4.9 1.1L-3.9 -3.1Z" fill="none" stroke="#151521" stroke-width="3"/></g><g transform="translate(903 250)"><path d="M0 -9L7 -5.6L8.8 2L3.9 8.1L-3.9 8.1L-8.8 2L-7 -5.6Z" fill="none" stroke="#151521" stroke-width="3"/></g><g transform="translate(157 355)"><path d="M0 -10L7.8 -6.2L9.7 2.2L4.3 9L-4.3 9L-9.7 2.2L-7.8 -6.2Z" fill="none" stroke="#151521" stroke-width="3"/></g><g transform="translate(232 386)"><path d="M0 -4L3.1 -2.5L3.9 0.9L1.7 3.6L-1.7 3.6L-3.9 0.9L-3.1 -2.5Z" fill="none" stroke="#151521" stroke-width="3"/></g><g transform="translate(410 419)"><path d="M0 -1L0.8 -0.6L1 0.2L0.4 0.9L-0.4 0.9L-1 0.2L-0.8 -0.6Z" fill="none" stroke="#151521" stroke-width="3"/></g><g transform="translate(510 432)"><path d="M0 -8L6.3 -5L7.8 1.8L3.5 7.2L-3.5 7.2L-7.8 1.8L-6.3 -5Z" fill="none" stroke="#151521" stroke-width="3"/></g><g transform="translate(352 327)"><path d="M0 -9L7 -5.6L8.8 2L3.9 8.1L-3.9 8.1L-8.8 2L-7 -5.6Z" fill="none" stroke="#151521" stroke-width="3"/></g><g transform="translate(571 497)"><path d="M0 -7L5.5 -4.4L6.8 1.6L3 6.3L-3 6.3L-6.8 1.6L-5.5 -4.4Z" fill="none" stroke="#151521" stroke-width="3"/></g><g transform="translate(651 143)"><path d="M0 -8L6.3 -5L7.8 1.8L3.5 7.2L-3.5 7.2L-7.8 1.8L-6.3 -5Z" fill="none" stroke="#151521" stroke-width="3"/></g><g transform="translate(669 527)"><path d="M0 -8L6.3 -5L7.8 1.8L3.5 7.2L-3.5 7.2L-7.8 1.8L-6.3 -5Z" fill="none" stroke="#151521" stroke-width="3"/></g><g transform="translate(66 13)"><path d="M0 -5L3.9 -3.1L4.9 1.1L2.2 4.5L-2.2 4.5L-4.9 1.1L-3.9 -3.1Z" fill="none" stroke="#151521" stroke-width="3"/></g><g transform="translate(253 206)"><path d="M0 -5L3.9 -3.1L4.9 1.1L2.2 4.5L-2.2 4.5L-4.9 1.1L-3.9 -3.1Z" fill="none" stroke="#151521" stroke-width="3"/></g><g transform="translate(467 237)"><path d="M0 -3L2.3 -1.9L2.9 0.7L1.3 2.7L-1.3 2.7L-2.9 0.7L-2.3 -1.9Z" fill="none" stroke="#151521" stroke-width="3"/></g><g transform="translate(749 79)"><path d="M0 -8L6.3 -5L7.8 1.8L3.5 7.2L-3.5 7.2L-7.8 1.8L-6.3 -5Z" fill="none" stroke="#151521" stroke-width="3"/></g><g transform="translate(815 342)"><path d="M0 -2L1.6 -1.2L1.9 0.4L0.9 1.8L-0.9 1.8L-1.9 0.4L-1.6 -1.2Z" fill="none" stroke="#151521" stroke-width="3"/></g><g transform="translate(346 176)"><path d="M0 -9L7 -5.6L8.8 2L3.9 8.1L-3.9 8.1L-8.8 2L-7 -5.6Z" fill="none" stroke="#151521" stroke-width="3"/></g><g transform="translate(835 120)"><path d="M0 -1L0.8 -0.6L1 0.2L0.4 0.9L-0.4 0.9L-1 0.2L-0.8 -0.6Z" fill="none" stroke="#151521" stroke-width="3"/></g><g transform="translate(123 45)"><path d="M0 -1L0.8 -0.6L1 0.2L0.4 0.9L-0.4 0.9L-1 0.2L-0.8 -0.6Z" fill="none" stroke="#151521" stroke-width="3"/></g><g transform="translate(563 125)"><path d="M0 -1L0.8 -0.6L1 0.2L0.4 0.9L-0.4 0.9L-1 0.2L-0.8 -0.6Z" fill="none" stroke="#151521" stroke-width="3"/></g><g transform="translate(95 357)"><path d="M0 -6L4.7 -3.7L5.8 1.3L2.6 5.4L-2.6 5.4L-5.8 1.3L-4.7 -3.7Z" fill="none" stroke="#151521" stroke-width="3"/></g><g transform="translate(623 270)"><path d="M0 -5L3.9 -3.1L4.9 1.1L2.2 4.5L-2.2 4.5L-4.9 1.1L-3.9 -3.1Z" fill="none" stroke="#151521" stroke-width="3"/></g><g transform="translate(700 19)"><path d="M0 -7L5.5 -4.4L6.8 1.6L3 6.3L-3 6.3L-6.8 1.6L-5.5 -4.4Z" fill="none" stroke="#151521" stroke-width="3"/></g><g transform="translate(803 184)"><path d="M0 -1L0.8 -0.6L1 0.2L0.4 0.9L-0.4 0.9L-1 0.2L-0.8 -0.6Z" fill="none" stroke="#151521" stroke-width="3"/></g><g transform="translate(374 391)"><path d="M0 -10L7.8 -6.2L9.7 2.2L4.3 9L-4.3 9L-9.7 2.2L-7.8 -6.2Z" fill="none" stroke="#151521" stroke-width="3"/></g><g transform="translate(938 496)"><path d="M0 -8L6.3 -5L7.8 1.8L3.5 7.2L-3.5 7.2L-7.8 1.8L-6.3 -5Z" fill="none" stroke="#151521" stroke-width="3"/></g><g transform="translate(585 275)"><path d="M0 -10L7.8 -6.2L9.7 2.2L4.3 9L-4.3 9L-9.7 2.2L-7.8 -6.2Z" fill="none" stroke="#151521" stroke-width="3"/></g><g transform="translate(308 47)"><path d="M0 -4L3.1 -2.5L3.9 0.9L1.7 3.6L-1.7 3.6L-3.9 0.9L-3.1 -2.5Z" fill="none" stroke="#151521" stroke-width="3"/></g><g transform="translate(606 17)"><path d="M0 -2L1.6 -1.2L1.9 0.4L0.9 1.8L-0.9 1.8L-1.9 0.4L-1.6 -1.2Z" fill="none" stroke="#151521" stroke-width="3"/></g><g transform="translate(182 141)"><path d="M0 -7L5.5 -4.4L6.8 1.6L3 6.3L-3 6.3L-6.8 1.6L-5.5 -4.4Z" fill="none" stroke="#151521" stroke-width="3"/></g><g transform="translate(134 449)"><path d="M0 -8L6.3 -5L7.8 1.8L3.5 7.2L-3.5 7.2L-7.8 1.8L-6.3 -5Z" fill="none" stroke="#151521" stroke-width="3"/></g><g transform="translate(944 117)"><path d="M0 -11L8.6 -6.9L10.7 2.4L4.8 9.9L-4.8 9.9L-10.7 2.4L-8.6 -6.9Z" fill="none" stroke="#151521" stroke-width="3"/></g><g transform="translate(703 138)"><path d="M0 -8L6.3 -5L7.8 1.8L3.5 7.2L-3.5 7.2L-7.8 1.8L-6.3 -5Z" fill="none" stroke="#151521" stroke-width="3"/></g><g transform="translate(395 110)"><path d="M0 -2L1.6 -1.2L1.9 0.4L0.9 1.8L-0.9 1.8L-1.9 0.4L-1.6 -1.2Z" fill="none" stroke="#151521" stroke-width="3"/></g><g transform="translate(607 85)"><path d="M0 -8L6.3 -5L7.8 1.8L3.5 7.2L-3.5 7.2L-7.8 1.8L-6.3 -5Z" fill="none" stroke="#151521" stroke-width="3"/></g><g transform="translate(206 412)"><path d="M0 -8L6.3 -5L7.8 1.8L3.5 7.2L-3.5 7.2L-7.8 1.8L-6.3 -5Z" fill="none" stroke="#151521" stroke-width="3"/></g><g transform="translate(511 172)"><path d="M0 -11L8.6 -6.9L10.7 2.4L4.8 9.9L-4.8 9.9L-10.7 2.4L-8.6 -6.9Z" fill="none" stroke="#151521" stroke-width="3"/></g><g transform="translate(434 327)"><path d="M0 -4L3.1 -2.5L3.9 0.9L1.7 3.6L-1.7 3.6L-3.9 0.9L-3.1 -2.5Z" fill="none" stroke="#151521" stroke-width="3"/></g><g transform="translate(116 262)"><path d="M0 -4L3.1 -2.5L3.9 0.9L1.7 3.6L-1.7 3.6L-3.9 0.9L-3.1 -2.5Z" fill="none" stroke="#151521" stroke-width="3"/></g><g transform="translate(819 472)"><path d="M0 -11L8.6 -6.9L10.7 2.4L4.8 9.9L-4.8 9.9L-10.7 2.4L-8.6 -6.9Z" fill="none" stroke="#151521" stroke-width="3"/></g><g transform="translate(701 366)"><path d="M0 -8L6.3 -5L7.8 1.8L3.5 7.2L-3.5 7.2L-7.8 1.8L-6.3 -5Z" fill="none" stroke="#151521" stroke-width="3"/></g><g transform="translate(510 358)"><path d="M0 -9L7 -5.6L8.8 2L3.9 8.1L-3.9 8.1L-8.8 2L-7 -5.6Z" fill="none" stroke="#151521" stroke-width="3"/></g><g transform="translate(177 72)"><path d="M0 -11L8.6 -6.9L10.7 2.4L4.8 9.9L-4.8 9.9L-10.7 2.4L-8.6 -6.9Z" fill="none" stroke="#151521" stroke-width="3"/></g><g transform="translate(877 76)"><path d="M0 -3L2.3 -1.9L2.9 0.7L1.3 2.7L-1.3 2.7L-2.9 0.7L-2.3 -1.9Z" fill="none" stroke="#151521" stroke-width="3"/></g><g transform="translate(904 73)"><path d="M0 -10L7.8 -6.2L9.7 2.2L4.3 9L-4.3 9L-9.7 2.2L-7.8 -6.2Z" fill="none" stroke="#151521" stroke-width="3"/></g><g transform="translate(584 454)"><path d="M0 -4L3.1 -2.5L3.9 0.9L1.7 3.6L-1.7 3.6L-3.9 0.9L-3.1 -2.5Z" fill="none" stroke="#151521" stroke-width="3"/></g><g transform="translate(374 59)"><path d="M0 -9L7 -5.6L8.8 2L3.9 8.1L-3.9 8.1L-8.8 2L-7 -5.6Z" fill="none" stroke="#151521" stroke-width="3"/></g><g transform="translate(702 411)"><path d="M0 -5L3.9 -3.1L4.9 1.1L2.2 4.5L-2.2 4.5L-4.9 1.1L-3.9 -3.1Z" fill="none" stroke="#151521" stroke-width="3"/></g><g transform="translate(265 278)"><path d="M0 -4L3.1 -2.5L3.9 0.9L1.7 3.6L-1.7 3.6L-3.9 0.9L-3.1 -2.5Z" fill="none" stroke="#151521" stroke-width="3"/></g><g transform="translate(553 97)"><path d="M0 -3L2.3 -1.9L2.9 0.7L1.3 2.7L-1.3 2.7L-2.9 0.7L-2.3 -1.9Z" fill="none" stroke="#151521" stroke-width="3"/></g><g transform="translate(206 527)"><path d="M0 -9L7 -5.6L8.8 2L3.9 8.1L-3.9 8.1L-8.8 2L-7 -5.6Z" fill="none" stroke="#151521" stroke-width="3"/></g><g transform="translate(842 52)"><path d="M0 -2L1.6 -1.2L1.9 0.4L0.9 1.8L-0.9 1.8L-1.9 0.4L-1.6 -1.2Z" fill="none" stroke="#151521" stroke-width="3"/></g><g transform="translate(417 176)"><path d="M0 -6L4.7 -3.7L5.8 1.3L2.6 5.4L-2.6 5.4L-5.8 1.3L-4.7 -3.7Z" fill="none" stroke="#151521" stroke-width="3"/></g><g transform="translate(192 495)"><path d="M0 -6L4.7 -3.7L5.8 1.3L2.6 5.4L-2.6 5.4L-5.8 1.3L-4.7 -3.7Z" fill="none" stroke="#151521" stroke-width="3"/></g><g transform="translate(649 410)"><path d="M0 -6L4.7 -3.7L5.8 1.3L2.6 5.4L-2.6 5.4L-5.8 1.3L-4.7 -3.7Z" fill="none" stroke="#151521" stroke-width="3"/></g><g transform="translate(118 194)"><path d="M0 -4L3.1 -2.5L3.9 0.9L1.7 3.6L-1.7 3.6L-3.9 0.9L-3.1 -2.5Z" fill="none" stroke="#151521" stroke-width="3"/></g><g transform="translate(785 429)"><path d="M0 -7L5.5 -4.4L6.8 1.6L3 6.3L-3 6.3L-6.8 1.6L-5.5 -4.4Z" fill="none" stroke="#151521" stroke-width="3"/></g><g transform="translate(724 525)"><path d="M0 -8L6.3 -5L7.8 1.8L3.5 7.2L-3.5 7.2L-7.8 1.8L-6.3 -5Z" fill="none" stroke="#151521" stroke-width="3"/></g><g transform="translate(900 303)"><path d="M0 -4L3.1 -2.5L3.9 0.9L1.7 3.6L-1.7 3.6L-3.9 0.9L-3.1 -2.5Z" fill="none" stroke="#151521" stroke-width="3"/></g><g transform="translate(631 41)"><path d="M0 -4L3.1 -2.5L3.9 0.9L1.7 3.6L-1.7 3.6L-3.9 0.9L-3.1 -2.5Z" fill="none" stroke="#151521" stroke-width="3"/></g><g transform="translate(632 70)"><path d="M0 -5L3.9 -3.1L4.9 1.1L2.2 4.5L-2.2 4.5L-4.9 1.1L-3.9 -3.1Z" fill="none" stroke="#151521" stroke-width="3"/></g><g transform="translate(691 220)"><path d="M0 -3L2.3 -1.9L2.9 0.7L1.3 2.7L-1.3 2.7L-2.9 0.7L-2.3 -1.9Z" fill="none" stroke="#151521" stroke-width="3"/></g><g transform="translate(454 310)"><path d="M0 -6L4.7 -3.7L5.8 1.3L2.6 5.4L-2.6 5.4L-5.8 1.3L-4.7 -3.7Z" fill="none" stroke="#151521" stroke-width="3"/></g><g transform="translate(564 472)"><path d="M0 -1L0.8 -0.6L1 0.2L0.4 0.9L-0.4 0.9L-1 0.2L-0.8 -0.6Z" fill="none" stroke="#151521" stroke-width="3"/></g></g></svg>